<svg xmlns="http://www.w3.org/2000/svg" width="23.197" height="21.679" viewBox="0 0 23.197 21.679">
  <g id="calendar" transform="translate(-1 -2)">
    <path id="Path_4835" data-name="Path 4835" d="M21.667,2H19.5V4.168a.723.723,0,0,1-1.445,0V2H6.492V4.168a.723.723,0,0,1-1.445,0V2H2.879A1.99,1.99,0,0,0,1,4.168v2.6H24.124v-2.6A2.438,2.438,0,0,0,21.667,2ZM1,8.287V21.511a1.961,1.961,0,0,0,1.951,2.168H21.74A2.438,2.438,0,0,0,24.2,21.511V8.287Zm6.431,12.14H5.7a.57.57,0,0,1-.578-.578V18.043a.57.57,0,0,1,.578-.578H7.5a.57.57,0,0,1,.578.578v1.807a.633.633,0,0,1-.65.578Zm0-6.5H5.7a.57.57,0,0,1-.578-.578V11.539a.57.57,0,0,1,.578-.578H7.5a.57.57,0,0,1,.578.578v1.807a.633.633,0,0,1-.65.578Zm5.781,6.5H11.406a.57.57,0,0,1-.578-.578V18.043a.57.57,0,0,1,.578-.578h1.807a.57.57,0,0,1,.578.578v1.807A.532.532,0,0,1,13.213,20.427Zm0-6.5H11.406a.57.57,0,0,1-.578-.578V11.539a.57.57,0,0,1,.578-.578h1.807a.57.57,0,0,1,.578.578v1.807A.532.532,0,0,1,13.213,13.924Zm5.781,6.5H17.187a.57.57,0,0,1-.578-.578V18.043a.57.57,0,0,1,.578-.578h1.807a.57.57,0,0,1,.578.578v1.807A.532.532,0,0,1,18.994,20.427Zm0-6.5H17.187a.57.57,0,0,1-.578-.578V11.539a.57.57,0,0,1,.578-.578h1.807a.57.57,0,0,1,.578.578v1.807A.532.532,0,0,1,18.994,13.924Z"/>
  </g>
</svg>
