<svg xmlns="http://www.w3.org/2000/svg" width="11.77" height="11" viewBox="0 0 11.77 11">
  <g id="calendar" transform="translate(-1 -2)">
    <path id="Path_2410" data-name="Path 2410" d="M11.487,2h-1.1V3.1a.367.367,0,1,1-.733,0V2H3.787V3.1a.367.367,0,0,1-.733,0V2h-1.1A1.01,1.01,0,0,0,1,3.1V4.42H12.733V3.1A1.237,1.237,0,0,0,11.487,2ZM1,5.19V11.9A1,1,0,0,0,1.99,13h9.533a1.237,1.237,0,0,0,1.247-1.1V5.19Zm3.263,6.16h-.88a.289.289,0,0,1-.293-.293V10.14a.289.289,0,0,1,.293-.293H4.3a.289.289,0,0,1,.293.293v.917a.321.321,0,0,1-.33.293Zm0-3.3h-.88a.289.289,0,0,1-.293-.293V6.84a.289.289,0,0,1,.293-.293H4.3a.289.289,0,0,1,.293.293v.917a.321.321,0,0,1-.33.293ZM7.2,11.35H6.28a.289.289,0,0,1-.293-.293V10.14a.289.289,0,0,1,.293-.293H7.2a.289.289,0,0,1,.293.293v.917A.27.27,0,0,1,7.2,11.35Zm0-3.3H6.28a.289.289,0,0,1-.293-.293V6.84a.289.289,0,0,1,.293-.293H7.2a.289.289,0,0,1,.293.293v.917A.27.27,0,0,1,7.2,8.05Zm2.933,3.3H9.213a.289.289,0,0,1-.293-.293V10.14a.289.289,0,0,1,.293-.293h.917a.289.289,0,0,1,.293.293v.917A.27.27,0,0,1,10.13,11.35Zm0-3.3H9.213a.289.289,0,0,1-.293-.293V6.84a.289.289,0,0,1,.293-.293h.917a.289.289,0,0,1,.293.293v.917A.27.27,0,0,1,10.13,8.05Z"/>
  </g>
</svg>
