<svg xmlns="http://www.w3.org/2000/svg" width="16.186" height="15.412" viewBox="0 0 16.186 15.412">
  <path id="Union_1" data-name="Union 1" d="M12.255,15.412a1.882,1.882,0,1,1,1.885-1.883v0a1.884,1.884,0,0,1-1.883,1.881Zm-6.45,0a1.882,1.882,0,0,1-.043-3.763,1.882,1.882,0,0,1,.089,3.763Zm7.227-4.441H5.479A2.008,2.008,0,0,1,3.5,9.274L2.385,1.612a.182.182,0,0,0-.182-.16H.726A.726.726,0,1,1,.726,0H2.2A1.634,1.634,0,0,1,3.819,1.407L4,2.621H15.46a.7.7,0,0,1,.137.013.727.727,0,0,1,.575.851L14.99,9.374a2,2,0,0,1-1.957,1.6Z" fill="#fff"/>
</svg>
