<svg xmlns="http://www.w3.org/2000/svg" width="20.844" height="78.656" viewBox="0 0 20.844 78.656">
  <g id="Group_3005" data-name="Group 3005" transform="translate(-443.494 -50.672)">
    <g id="old-typical-phone" transform="translate(444 108.458)">
      <g id="Group_2687" data-name="Group 2687" transform="translate(0 4.542)">
        <path id="Path_14085" data-name="Path 14085" d="M10.057,7.525c3.342.033,5.435-.175,5.718,3.529H19.85c0-5.738-5-6.511-9.9-6.511s-9.9.773-9.9,6.511H4.1C4.408,7.279,6.743,7.492,10.057,7.525Z" transform="translate(-0.032 -4.542)" fill="#fff"/>
        <path id="Path_14086" data-name="Path 14086" d="M2.041,24.016c.993,0,1.818.059,2-.917a2.491,2.491,0,0,0,.039-.457H0C0,24.094.914,24.016,2.041,24.016Z" transform="translate(0 -15.66)" fill="#fff"/>
        <path id="Path_14087" data-name="Path 14087" d="M40.819,22.642h-.038a2.18,2.18,0,0,0,.043.457c.194.9,1.018.844,2.007.844,1.133,0,2.051.074,2.051-1.3Z" transform="translate(-25.05 -15.66)" fill="#fff"/>
        <path id="Path_14088" data-name="Path 14088" d="M16.061,18.722v-.577c0-.258-.3-.274-.665-.274h-.6c-.367,0-.664.016-.664.274v.883H9.889v-.883c0-.258-.3-.274-.664-.274h-.6c-.367,0-.664.016-.664.274v1.081a42.765,42.765,0,0,0-4.245,5.8l0,3.454a.579.579,0,0,0,.579.579h15.43a.579.579,0,0,0,.579-.579V25.007a43.528,43.528,0,0,0-4.243-5.781ZM9.679,25.489a.562.562,0,1,1,.562-.562A.562.562,0,0,1,9.679,25.489Zm0-1.929A.562.562,0,1,1,10.242,23,.562.562,0,0,1,9.679,23.56Zm0-1.928a.562.562,0,1,1,.562-.562A.562.562,0,0,1,9.679,21.632Zm2.314,3.857a.562.562,0,1,1,.562-.562A.562.562,0,0,1,11.994,25.489Zm0-1.929A.562.562,0,1,1,12.556,23,.562.562,0,0,1,11.994,23.56Zm0-1.928a.562.562,0,1,1,.562-.562A.562.562,0,0,1,11.994,21.632Zm2.314,3.857a.562.562,0,1,1,.562-.562A.562.562,0,0,1,14.308,25.489Zm0-1.929A.562.562,0,1,1,14.871,23,.562.562,0,0,1,14.308,23.56Zm0-1.928a.562.562,0,1,1,.562-.562A.562.562,0,0,1,14.308,21.632Z" transform="translate(-2.282 -12.729)" fill="#fff"/>
      </g>
    </g>
    <g id="email" transform="translate(443.494 -25.328)">
      <g id="Group_2689" data-name="Group 2689" transform="translate(1.068 84.193)">
        <g id="Group_2688" data-name="Group 2688">
          <path id="Path_14089" data-name="Path 14089" d="M38.665,277.251,36.919,279a1.932,1.932,0,0,1-2.677,0L32.5,277.251l-6.27,6.291a1.813,1.813,0,0,0,.764.172H44.17a1.812,1.812,0,0,0,.764-.172Z" transform="translate(-26.226 -277.251)" fill="#fff"/>
        </g>
      </g>
      <g id="Group_2691" data-name="Group 2691" transform="translate(1.068 76)">
        <g id="Group_2690" data-name="Group 2690">
          <path id="Path_14090" data-name="Path 14090" d="M44.172,76H26.992a1.813,1.813,0,0,0-.764.172l6.7,6.722h0l2.179,2.186a.733.733,0,0,0,.947,0L38.234,82.9h0l6.7-6.722A1.812,1.812,0,0,0,44.172,76Z" transform="translate(-26.228 -76)" fill="#fff"/>
        </g>
      </g>
      <g id="Group_2693" data-name="Group 2693" transform="translate(0 77.026)">
        <g id="Group_2692" data-name="Group 2692" transform="translate(0 0)">
          <path id="Path_14091" data-name="Path 14091" d="M.195,101.212a1.81,1.81,0,0,0-.195.806V113.01a1.809,1.809,0,0,0,.195.806l6.281-6.3Z" transform="translate(0 -101.212)" fill="#fff"/>
        </g>
      </g>
      <g id="Group_2695" data-name="Group 2695" transform="translate(14.368 77.026)">
        <g id="Group_2694" data-name="Group 2694" transform="translate(0 0)">
          <path id="Path_14092" data-name="Path 14092" d="M359.214,101.21l-6.281,6.3,6.281,6.3a1.81,1.81,0,0,0,.195-.806V102.016A1.81,1.81,0,0,0,359.214,101.21Z" transform="translate(-352.933 -101.21)" fill="#fff"/>
        </g>
      </g>
    </g>
  </g>
</svg>
