<svg xmlns="http://www.w3.org/2000/svg" viewBox="0.0179998 -0.0000826851 37.96 41">
  <path d="M10.364,41a6.872,6.872,0,0,1-6.91-6.834V10.25H1.727a1.709,1.709,0,1,1,0-3.418H12.091V5.124A5.153,5.153,0,0,1,17.273,0h3.454A5.154,5.154,0,0,1,25.91,5.124V6.833H36.272a1.709,1.709,0,1,1,0,3.418H34.545V34.166A6.872,6.872,0,0,1,27.637,41ZM6.908,34.166a3.435,3.435,0,0,0,3.456,3.416H27.637a3.435,3.435,0,0,0,3.454-3.416V10.25H6.908ZM15.546,5.124V6.833h6.908V5.124a1.718,1.718,0,0,0-1.727-1.708H17.273A1.718,1.718,0,0,0,15.546,5.124ZM24.183,30.75V17.083a1.727,1.727,0,0,1,3.454,0V30.75a1.727,1.727,0,0,1-3.454,0Zm-6.91,0V17.083a1.727,1.727,0,0,1,3.454,0V30.75a1.727,1.727,0,0,1-3.454,0Zm-6.908,0V17.083a1.727,1.727,0,0,1,3.454,0V30.75a1.727,1.727,0,0,1-3.454,0Z" fill="#707070"/>
</svg>