<svg xmlns="http://www.w3.org/2000/svg" width="18.795" height="11.056" viewBox="0 0 18.795 11.056">
  <g id="van" transform="translate(0 -105.412)">
    <g id="Group_44" data-name="Group 44" transform="translate(18.795 116.468) rotate(180)">
      <path id="Path_322" data-name="Path 322" d="M15.478,1.935A1.935,1.935,0,1,1,13.543,0,1.935,1.935,0,0,1,15.478,1.935Zm-2.764,0a.829.829,0,1,0,.829-.829A.829.829,0,0,0,12.714,1.935Zm-8.845,0A1.935,1.935,0,1,1,1.935,0,1.935,1.935,0,0,1,3.87,1.935Zm-2.764,0a.829.829,0,1,0,.829-.829A.829.829,0,0,0,1.106,1.935Z" transform="translate(1.658 0)" fill="#888" fill-rule="evenodd"/>
      <path id="Path_323" data-name="Path 323" d="M1.382,9.121H9.95a.553.553,0,0,0,.547-.475l.4-2.776a.761.761,0,0,1,.714-.619h4.7a.553.553,0,0,0,.317-.1c.108-.076.253-.18.442-.317l.413-.3.174-.129a2.924,2.924,0,0,0,1.141-2.193V.553A.553.553,0,0,0,18.242,0h-.553A2.488,2.488,0,0,1,15.2,2.488,2.488,2.488,0,0,1,12.714,0H6.081A2.488,2.488,0,0,1,3.593,2.488,2.488,2.488,0,0,1,1.106,0H.553A.553.553,0,0,0,0,.553V3.317A.556.556,0,0,0,.007,3.4l.73,4.62a.553.553,0,0,0,.093,1.1Z" transform="translate(0 1.935)" fill="#888" fill-rule="evenodd"/>
      <path id="Path_324" data-name="Path 324" d="M4.7,3.87A3.036,3.036,0,0,1,2.488,4.975H.553a.553.553,0,0,1,0-1.106H2.488a1.953,1.953,0,0,0,1.327-.663L5.638.774A.552.552,0,0,1,5.774.646L6.6.093a.553.553,0,1,1,.613.92l-.749.5Z" transform="translate(9.397 6.081)" fill="#888" fill-rule="evenodd"/>
    </g>
  </g>
</svg>
