<svg xmlns="http://www.w3.org/2000/svg" width="22.315" height="22.31" viewBox="0 0 22.315 22.31">
  <g id="discount" transform="translate(0 -0.055)">
    <circle id="Ellipse_68" data-name="Ellipse 68" cx="0.654" cy="0.654" r="0.654" transform="translate(13.119 14.433)" fill="#707070"/>
    <circle id="Ellipse_69" data-name="Ellipse 69" cx="0.654" cy="0.654" r="0.654" transform="translate(7.889 6.588)" fill="#707070"/>
    <path id="Path_4845" data-name="Path 4845" d="M21.295,9.689a1.846,1.846,0,0,1-.621-2.318,1.8,1.8,0,0,0,.109-1.765A1.8,1.8,0,0,0,19.2,4.819a1.845,1.845,0,0,1-1.7-1.7,1.8,1.8,0,0,0-.788-1.583,1.807,1.807,0,0,0-1.765.109,1.85,1.85,0,0,1-2.318-.621,1.6,1.6,0,0,0-2.948,0,1.849,1.849,0,0,1-2.318.621A1.807,1.807,0,0,0,5.6,1.539a1.8,1.8,0,0,0-.788,1.583,1.845,1.845,0,0,1-1.7,1.7,1.8,1.8,0,0,0-1.583.788,1.8,1.8,0,0,0,.109,1.765A1.846,1.846,0,0,1,1.02,9.69,1.864,1.864,0,0,0,0,11.164a1.862,1.862,0,0,0,1.02,1.474,1.847,1.847,0,0,1,.621,2.318,1.8,1.8,0,0,0-.109,1.765,1.8,1.8,0,0,0,1.583.788,1.845,1.845,0,0,1,1.7,1.7A1.8,1.8,0,0,0,5.6,20.789a1.8,1.8,0,0,0,1.765-.109,1.846,1.846,0,0,1,2.318.622,1.927,1.927,0,0,0,1.474,1.063A1.928,1.928,0,0,0,12.632,21.3a1.84,1.84,0,0,1,2.318-.621,1.8,1.8,0,0,0,1.765.109,1.8,1.8,0,0,0,.788-1.583,1.845,1.845,0,0,1,1.7-1.7,1.8,1.8,0,0,0,1.583-.788,1.8,1.8,0,0,0-.109-1.765,1.847,1.847,0,0,1,.621-2.318,1.862,1.862,0,0,0,1.02-1.474,1.865,1.865,0,0,0-1.02-1.475ZM8.542,5.28A1.961,1.961,0,1,1,6.581,7.242,1.963,1.963,0,0,1,8.542,5.28ZM7.758,16.786,6.712,16l7.845-10.46,1.046.784Zm6.015.262a1.961,1.961,0,1,1,1.961-1.961A1.963,1.963,0,0,1,13.773,17.048Z" transform="translate(0 0)" fill="#707070"/>
  </g>
</svg>
