<svg xmlns="http://www.w3.org/2000/svg" width="15.324" height="15.971" viewBox="0 0 15.324 15.971">
  <g id="discount" transform="translate(-10.359 0.002)">
    <g id="Group_2715" data-name="Group 2715" transform="translate(10.359 -0.002)">
      <g id="Group_2714" data-name="Group 2714" transform="translate(0 0)">
        <path id="Path_14102" data-name="Path 14102" d="M24.944,8.19a.468.468,0,0,1,0-.414l.6-1.219a1.386,1.386,0,0,0-.6-1.841l-1.2-.636a.468.468,0,0,1-.243-.335l-.234-1.336A1.386,1.386,0,0,0,21.7,1.273l-1.343.19a.468.468,0,0,1-.393-.128L18.989.392a1.386,1.386,0,0,0-1.936,0l-.975.943a.468.468,0,0,1-.393.128l-1.343-.19a1.386,1.386,0,0,0-1.566,1.138l-.234,1.336a.468.468,0,0,1-.243.335l-1.2.636a1.386,1.386,0,0,0-.6,1.841l.6,1.218a.468.468,0,0,1,0,.414l-.6,1.218a1.386,1.386,0,0,0,.6,1.841l1.2.636a.468.468,0,0,1,.243.335l.234,1.336a1.386,1.386,0,0,0,1.367,1.152,1.424,1.424,0,0,0,.2-.014l1.343-.19a.468.468,0,0,1,.393.128l.975.943a1.386,1.386,0,0,0,1.936,0l.975-.943a.469.469,0,0,1,.393-.128l1.343.19a1.386,1.386,0,0,0,1.566-1.138L23.5,12.22a.468.468,0,0,1,.243-.335l1.2-.636a1.386,1.386,0,0,0,.6-1.841ZM16.179,3.838A1.689,1.689,0,1,1,14.49,5.527,1.691,1.691,0,0,1,16.179,3.838Zm-.872,7.51a.461.461,0,0,1-.651-.651l6.079-6.079a.461.461,0,0,1,.651.651Zm4.556.78a1.689,1.689,0,1,1,1.689-1.689A1.691,1.691,0,0,1,19.863,12.128Z" transform="translate(-10.359 0.002)" fill="#fff"/>
      </g>
    </g>
    <g id="Group_2717" data-name="Group 2717" transform="translate(19.096 9.672)">
      <g id="Group_2716" data-name="Group 2716">
        <path id="Path_14103" data-name="Path 14103" d="M291.22,310.141a.768.768,0,1,0,.768.768A.768.768,0,0,0,291.22,310.141Z" transform="translate(-290.452 -310.141)" fill="#fff"/>
      </g>
    </g>
    <g id="Group_2719" data-name="Group 2719" transform="translate(15.411 4.76)">
      <g id="Group_2718" data-name="Group 2718">
        <path id="Path_14104" data-name="Path 14104" d="M173.1,152.646a.768.768,0,1,0,.768.768A.768.768,0,0,0,173.1,152.646Z" transform="translate(-172.333 -152.646)" fill="#fff"/>
      </g>
    </g>
  </g>
</svg>
