<svg xmlns="http://www.w3.org/2000/svg" xmlns:xlink="http://www.w3.org/1999/xlink" width="287.262" height="141.208" viewBox="0 0 287.262 141.208">
  <defs>
    <clipPath id="clip-path">
      <rect id="Rectangle_954" data-name="Rectangle 954" width="12.692" height="15.014" fill="none"/>
    </clipPath>
    <clipPath id="clip-path-2">
      <rect id="Rectangle_955" data-name="Rectangle 955" width="13.004" height="20.318" fill="none"/>
    </clipPath>
    <clipPath id="clip-path-3">
      <rect id="Rectangle_956" data-name="Rectangle 956" width="38.557" height="27.528" fill="none"/>
    </clipPath>
    <clipPath id="clip-path-4">
      <rect id="Rectangle_957" data-name="Rectangle 957" width="16.012" height="19.954" fill="none"/>
    </clipPath>
    <clipPath id="clip-path-6">
      <rect id="Rectangle_959" data-name="Rectangle 959" width="13.702" height="11.837" fill="none"/>
    </clipPath>
    <clipPath id="clip-path-7">
      <rect id="Rectangle_960" data-name="Rectangle 960" width="13.898" height="6.949" fill="none"/>
    </clipPath>
    <clipPath id="clip-path-8">
      <rect id="Rectangle_961" data-name="Rectangle 961" width="3.223" height="8.579" fill="none"/>
    </clipPath>
    <clipPath id="clip-path-9">
      <rect id="Rectangle_962" data-name="Rectangle 962" width="15.145" height="7.019" fill="none"/>
    </clipPath>
    <clipPath id="clip-path-10">
      <rect id="Rectangle_963" data-name="Rectangle 963" width="2.903" height="8.578" fill="none"/>
    </clipPath>
    <clipPath id="clip-path-11">
      <rect id="Rectangle_964" data-name="Rectangle 964" width="2.841" height="9.681" fill="none"/>
    </clipPath>
    <clipPath id="clip-path-12">
      <rect id="Rectangle_965" data-name="Rectangle 965" width="2.882" height="14.135" fill="none"/>
    </clipPath>
    <clipPath id="clip-path-13">
      <rect id="Rectangle_966" data-name="Rectangle 966" width="2.938" height="19.191" fill="none"/>
    </clipPath>
    <clipPath id="clip-path-14">
      <rect id="Rectangle_967" data-name="Rectangle 967" width="3.072" height="9.905" fill="none"/>
    </clipPath>
  </defs>
  <g id="Group_3005" data-name="Group 3005" transform="translate(-19232.369 343.208)">
    <g id="Group_2708" data-name="Group 2708" transform="translate(1699.369 379.592)">
      <path id="Path_13840" data-name="Path 13840" d="M73.521,112.2a9.256,9.256,0,1,1,9.256-9.256,9.266,9.266,0,0,1-9.256,9.256m0-15.735A6.479,6.479,0,1,0,80,102.944a6.486,6.486,0,0,0-6.479-6.479" transform="translate(17528.219 -729.772)" fill="#ef9926"/>
      <path id="Path_13841" data-name="Path 13841" d="M290.813,58.1a3.24,3.24,0,1,1,3.24-3.24,3.243,3.243,0,0,1-3.24,3.24m0-5.553a2.314,2.314,0,1,0,2.314,2.314,2.317,2.317,0,0,0-2.314-2.314" transform="translate(17511.6 -726.641)" fill="#ffeb97"/>
      <path id="Path_13842" data-name="Path 13842" d="M108.011,149.99a3.795,3.795,0,1,1,3.795-3.795,3.8,3.8,0,0,1-3.795,3.795m0-6.479a2.684,2.684,0,1,0,2.684,2.684,2.687,2.687,0,0,0-2.684-2.684" transform="translate(17525.244 -733.397)" fill="#ea3f3f"/>
      <path id="Path_13843" data-name="Path 13843" d="M256.522,95.548a4.165,4.165,0,1,1-4.165-4.165,4.165,4.165,0,0,1,4.165,4.165" transform="translate(17514.529 -729.601)" fill="#ffae1f"/>
      <path id="Path_13844" data-name="Path 13844" d="M69.389,45.318a3.24,3.24,0,1,1-3.24-3.24,3.24,3.24,0,0,1,3.24,3.24" transform="translate(17528.318 -725.931)" fill="#ffae1f"/>
      <path id="Path_13845" data-name="Path 13845" d="M221.66,23.6a3.7,3.7,0,1,1-3.7-3.7,3.7,3.7,0,0,1,3.7,3.7" transform="translate(17517.057 -724.281)" fill="#ffd522"/>
      <path id="Path_13846" data-name="Path 13846" d="M15.622,124.306a3.7,3.7,0,1,1-3.7-3.7,3.7,3.7,0,0,1,3.7,3.7" transform="translate(17532.389 -731.775)" fill="#ffd522"/>
      <path id="Path_13847" data-name="Path 13847" d="M296.258,132.054a2.777,2.777,0,1,1-2.777-2.777,2.777,2.777,0,0,1,2.777,2.777" transform="translate(17511.365 -732.42)" fill="#ffd522"/>
      <path id="Path_13848" data-name="Path 13848" d="M95.483,81.969A4.165,4.165,0,1,1,91.318,77.8a4.165,4.165,0,0,1,4.165,4.165" transform="translate(17526.516 -728.59)" fill="#e54242"/>
      <path id="Path_13849" data-name="Path 13849" d="M192.885,1.388A1.388,1.388,0,1,1,191.5,0a1.389,1.389,0,0,1,1.388,1.388" transform="translate(17518.854 -722.8)" fill="#e54242"/>
      <path id="Path_13850" data-name="Path 13850" d="M34.27,114.868a1.388,1.388,0,1,1-1.388-1.388,1.388,1.388,0,0,1,1.388,1.388" transform="translate(17530.656 -731.245)" fill="#e54242"/>
      <path id="Path_13851" data-name="Path 13851" d="M106.093,105.576a1.388,1.388,0,1,1-1.388-1.388,1.389,1.389,0,0,1,1.388,1.388" transform="translate(17525.311 -730.553)" fill="#e54242"/>
      <path id="Path_13852" data-name="Path 13852" d="M224.051,89.044a1.388,1.388,0,1,1-1.388-1.388,1.388,1.388,0,0,1,1.388,1.388" transform="translate(17516.533 -729.323)" fill="#ffae1f"/>
      <path id="Path_13853" data-name="Path 13853" d="M109.018,10.331a1.388,1.388,0,1,1-1.388-1.388,1.389,1.389,0,0,1,1.388,1.388" transform="translate(17525.094 -723.466)" fill="#ffc91f"/>
      <path id="Path_13854" data-name="Path 13854" d="M165.232,20.657a2.314,2.314,0,1,1-2.314-2.314,2.314,2.314,0,0,1,2.314,2.314" transform="translate(17521.049 -724.165)" fill="#ef4b4b"/>
      <path id="Path_13855" data-name="Path 13855" d="M306.522,108a2.314,2.314,0,1,1-2.314-2.314A2.314,2.314,0,0,1,306.522,108" transform="translate(17510.533 -730.665)" fill="#ef4b4b"/>
      <path id="Path_13856" data-name="Path 13856" d="M242.49,76.836a2.314,2.314,0,1,1-2.314-2.314,2.314,2.314,0,0,1,2.314,2.314" transform="translate(17515.299 -728.346)" fill="#e54242"/>
      <path id="Path_13857" data-name="Path 13857" d="M267.072,132.948l-9.455-9.891-9.632,5.243-1.327-2.439,11.5-6.258,9.032,9.447L282.2,115.109l1.889,2.034Z" transform="translate(17514.645 -731.366)" fill="#ffae1f"/>
      <path id="Path_13858" data-name="Path 13858" d="M254.527,53.359,253.3,39.654l13.638-.019-4.192-14.78,15.671-.9-4.267-10.907L277.6,11.7l6.126,15.657-16.157.932,4.268,15.045-14.487.019.863,9.68Z" transform="translate(17514.15 -723.67)" fill="#ef4b4b"/>
      <path id="Path_13859" data-name="Path 13859" d="M90.364,48.766l-2.642-.855,4.642-14.348L79.67,27.972,85.05,14.535,69.906,10.8l.664-2.7,18.243,4.5-5.567,13.91,12.531,5.52Z" transform="translate(17527.797 -723.403)" fill="#ffae1f"/>
      <path id="Path_13860" data-name="Path 13860" d="M20.253,93.1,12.583,76.964,3.054,90.877,0,88.785,13.165,69.562l8.077,17,8.5-9.241,7.742,12.863-3.172,1.909-5.192-8.625Z" transform="translate(17533 -727.977)" fill="#ffe669"/>
      <path id="Path_13861" data-name="Path 13861" d="M44.025,52.151c-8.127-5.384-5.5-16.475-5.387-16.945l2.7.662c-.024.1-2.263,9.67,4.223,13.968Z" transform="translate(17530.162 -725.42)" fill="#ffae1f"/>
      <path id="Path_13862" data-name="Path 13862" d="M294.807,86.518l-2.4-1.4c4.917-8.418,16.138-6.425,16.613-6.336l-.508,2.73c-.1-.018-9.783-1.712-13.708,5.006" transform="translate(17511.238 -728.643)" fill="#ffae1f"/>
      <path id="Path_13863" data-name="Path 13863" d="M83.2,131.906l-2.6-.967a14.126,14.126,0,0,1,14.993-8.4l-.3,2.76c-9.158-.985-12.063,6.531-12.091,6.608" transform="translate(17527.002 -731.911)" fill="#ffae1f"/>
      <path id="Path_13864" data-name="Path 13864" d="M221.162,151.325l-2.574-1.039c1.168-2.9,1.276-5.407.317-7.463a8.911,8.911,0,0,0-4.832-4.23l.86-2.641a11.749,11.749,0,0,1,6.49,5.7c1.3,2.782,1.209,6.038-.261,9.676" transform="translate(17517.07 -732.917)" fill="#cc3232"/>
      <path id="Path_13865" data-name="Path 13865" d="M117.564,21.9l-1.337-2.433c2.727-1.5,4.4-3.367,4.96-5.555a9.037,9.037,0,0,0-1.066-6.362l2.339-1.5a11.745,11.745,0,0,1,1.424,8.516c-.755,2.976-2.882,5.441-6.321,7.331" transform="translate(17524.35 -723.251)" fill="#cc3232"/>
      <path id="Path_13866" data-name="Path 13866" d="M242.05,116.511c-11.842-2.236-14.671-13.081-14.786-13.541l2.7-.671-1.348.335,1.347-.338a16.338,16.338,0,0,0,12.607,11.486Z" transform="translate(17516.088 -730.413)" fill="#ef4b4b"/>
      <path id="Path_13867" data-name="Path 13867" d="M223.223,38.46c-1.556,1.053,16.089-1.358,23.916-22.361.646-1.735-7.4-7.438-9.354-5.1S241.472,26.1,223.223,38.46" transform="translate(17516.395 -723.577)" fill="#ffae1f"/>
      <path id="Path_13868" data-name="Path 13868" d="M112.433,66.064s.068,54.756,1.312,56.78,46.153,22.609,47.777,22.125l-.278-58.579Z" transform="translate(17524.633 -727.716)" fill="#e54242"/>
      <path id="Path_13869" data-name="Path 13869" d="M130.824,131.878a15.483,15.483,0,0,0,12.692,5.95V82.577l-12.692-5.789Z" transform="translate(17523.264 -728.514)" fill="#ffae1f"/>
      <g id="Group_2493" data-name="Group 2493" transform="translate(17654.088 -651.726)" opacity="0.2" style="mix-blend-mode: multiply;isolation: isolate">
        <g id="Group_2492" data-name="Group 2492">
          <g id="Group_2491" data-name="Group 2491" clip-path="url(#clip-path)">
            <path id="Path_13870" data-name="Path 13870" d="M143.516,91.8V82.577l-12.692-5.789v11.4c4.189,1.373,8.41,2.609,12.692,3.617" transform="translate(-130.824 -76.788)" fill="#ffae1f"/>
          </g>
        </g>
      </g>
      <path id="Path_13871" data-name="Path 13871" d="M164.676,86.438l.734,58.356s43.588-21.138,44-23.375S210.979,63.7,210.979,63.7Z" transform="translate(17520.744 -727.54)" fill="#c13838"/>
      <path id="Path_13872" data-name="Path 13872" d="M186.826,135.844s7.662-.891,11.489-5.915l1.321-54.767-13,3.959Z" transform="translate(17519.111 -728.393)" fill="#ef9926"/>
      <g id="Group_2496" data-name="Group 2496" transform="translate(17705.742 -653.231)" opacity="0.17" style="mix-blend-mode: multiply;isolation: isolate">
        <g id="Group_2495" data-name="Group 2495">
          <g id="Group_2494" data-name="Group 2494" clip-path="url(#clip-path-2)">
            <path id="Path_13873" data-name="Path 13873" d="M199.256,90.945l.38-15.783-13,3.959.056,16.36c4.23-1.41,8.429-2.9,12.568-4.535" transform="translate(-186.632 -75.162)" fill="#ef9926"/>
          </g>
        </g>
      </g>
      <path id="Path_13874" data-name="Path 13874" d="M107.73,57.744s-.368,12.41.116,14.078,54.267,23.84,55.441,24.3c0,0-.341-15.051-.361-15.641-.025-.717-55.2-22.732-55.2-22.732" transform="translate(17524.992 -727.097)" fill="#ef4b4b"/>
      <path id="Path_13875" data-name="Path 13875" d="M167.374,80.657l.362,15.641s46-18.691,46.674-20.941c.335-1.123,1.373-15.231-.351-15.186Z" transform="translate(17520.543 -727.278)" fill="#d33c3c"/>
      <path id="Path_13876" data-name="Path 13876" d="M162.936,79.142l46.685-20.486s-49.014-18.893-51.349-18.838c-2.3.053-50.531,16.592-50.531,16.592Z" transform="translate(17524.982 -725.763)" fill="#e54242"/>
      <path id="Path_13877" data-name="Path 13877" d="M132.522,49.053l54,20.976,1.023,15.847s7.134.754,10.752-4.676l-.914-15.937L142.939,45.577s-7.614.054-10.417,3.476" transform="translate(17523.139 -726.192)" fill="#ffae1f"/>
      <path id="Path_13878" data-name="Path 13878" d="M176.92,46.193s7.653-.1,11.432,4.272l-47.109,19.61-.212,15.292s-10.454-1.144-13.522-5.751l.4-15.031Z" transform="translate(17523.512 -726.238)" fill="#ffc91f"/>
      <path id="Path_13879" data-name="Path 13879" d="M198.72,26.423c-19.559-20.859-37.328,24.21-33.045,28.582,5.834,5.953,53.737-6.514,33.045-28.582M166.985,53.882c-.769-1.038,15.2-39.819,27.57-23.558,14.433,18.974-26.367,25.183-27.57,23.558" transform="translate(17520.719 -724.358)" fill="#ffe424"/>
      <g id="Group_2499" data-name="Group 2499" transform="translate(17686.023 -695.399)" opacity="0.18" style="mix-blend-mode: multiply;isolation: isolate">
        <g id="Group_2498" data-name="Group 2498">
          <g id="Group_2497" data-name="Group 2497" clip-path="url(#clip-path-3)">
            <path id="Path_13880" data-name="Path 13880" d="M200.845,29.6c-.045.417-.091.835-.149,1.253a31.948,31.948,0,0,1-3.19,9.4,9.316,9.316,0,0,1-1.763,3.816,2.43,2.43,0,0,1-.8.959c-6.35,6.908-21.954,9.8-26.615,9.736a27.78,27.78,0,0,1-3,.262,1.8,1.8,0,0,0,.368.616C171.3,61.37,215.75,50.078,200.845,29.6" transform="translate(-165.328 -29.604)" fill="#ffbb24"/>
          </g>
        </g>
      </g>
      <path id="Path_13881" data-name="Path 13881" d="M164.613,54.366c2.979-1.311,3.128-27.076-10.656-20.65-14.583,6.8,6.6,22.433,10.656,20.65m-9.372-17.9c9.324-5.579,9.533,16.725,8.948,17.086-.915.564-19.828-10.576-8.948-17.086" transform="translate(17521.92 -725.233)" fill="#ffe424"/>
      <g id="Group_2502" data-name="Group 2502" transform="translate(17670.824 -690.68)" opacity="0.18" style="mix-blend-mode: multiply;isolation: isolate">
        <g id="Group_2501" data-name="Group 2501">
          <g id="Group_2500" data-name="Group 2500" clip-path="url(#clip-path-4)">
            <path id="Path_13882" data-name="Path 13882" d="M152.417,34.7c-.06.215-.12.43-.174.648a16.984,16.984,0,0,0-.287,5.273,4.958,4.958,0,0,0,.116,2.233,1.284,1.284,0,0,0,.207.633c1.768,4.667,8.9,9.184,11.212,10.073a14.825,14.825,0,0,0,1.427.723.964.964,0,0,1-.3.231c-3.9,1.714-23.606-12.656-12.2-19.814" transform="translate(-148.905 -34.702)" fill="#ffbb24"/>
          </g>
        </g>
      </g>
      <path id="Path_13883" data-name="Path 13883" d="M162.98,54.908c4.283-4.372-13.486-49.441-33.045-28.582-20.692,22.068,27.211,34.535,33.045,28.582M134.1,30.227c12.369-16.261,28.339,22.519,27.57,23.558-1.2,1.625-42-4.584-27.57-23.558" transform="translate(17523.713 -724.351)" fill="#ffe424"/>
      <g id="Group_2505" data-name="Group 2505" transform="translate(17648.504 -695.489)" opacity="0.18" style="mix-blend-mode: multiply;isolation: isolate">
        <g id="Group_2504" data-name="Group 2504">
          <g id="Group_2503" data-name="Group 2503" clip-path="url(#clip-path-3)">
            <path id="Path_13884" data-name="Path 13884" d="M127.833,29.507c.045.417.091.835.149,1.253a31.95,31.95,0,0,0,3.19,9.4,9.316,9.316,0,0,0,1.763,3.816,2.422,2.422,0,0,0,.8.959c6.35,6.908,21.954,9.8,26.615,9.736a27.781,27.781,0,0,0,3,.262,1.8,1.8,0,0,1-.368.616c-5.606,5.721-50.053-5.571-35.148-26.045" transform="translate(-124.792 -29.507)" fill="#ffbb24"/>
          </g>
        </g>
      </g>
      <path id="Path_13885" data-name="Path 13885" d="M178.206,43.684c-8.371-6.9-12.871,10.92-11.047,12.357,2.483,1.957,19.9-5.057,11.047-12.357M167.6,55.555c-.34-.354,3.788-15.72,9.231-10.2,6.351,6.439-8.7,10.755-9.231,10.2" transform="translate(17520.59 -725.933)" fill="#ffe424"/>
      <g id="Group_2508" data-name="Group 2508" transform="translate(17687.58 -681.397)" opacity="0.18" style="mix-blend-mode: multiply;isolation: isolate">
        <g id="Group_2507" data-name="Group 2507">
          <g id="Group_2506" data-name="Group 2506" clip-path="url(#clip-path-6)">
            <path id="Path_13886" data-name="Path 13886" d="M179.14,44.732c0,.159.006.318,0,.479A12.1,12.1,0,0,1,178.4,48.9a3.546,3.546,0,0,1-.478,1.521.924.924,0,0,1-.256.4c-2.055,2.907-7.785,4.753-9.543,4.955a10.484,10.484,0,0,1-1.113.243.664.664,0,0,0,.168.215c2.386,1.881,18.563-4.524,11.961-11.5" transform="translate(-167.009 -44.732)" fill="#ffbb24"/>
          </g>
        </g>
      </g>
      <g id="Group_2511" data-name="Group 2511" transform="translate(17657.365 -667.126)" opacity="0.48">
        <g id="Group_2510" data-name="Group 2510">
          <g id="Group_2509" data-name="Group 2509" clip-path="url(#clip-path-7)">
            <path id="Path_13887" data-name="Path 13887" d="M136.476,66.946a63.5,63.5,0,0,1,10.805-4.061,1.39,1.39,0,0,0-.738-2.678,67.565,67.565,0,0,0-11.469,4.342c-1.608.778-.2,3.174,1.4,2.4" transform="translate(-134.365 -60.15)" fill="#ffe424"/>
          </g>
        </g>
      </g>
      <g id="Group_2514" data-name="Group 2514" transform="translate(17653.77 -658.317)" opacity="0.48">
        <g id="Group_2513" data-name="Group 2513">
          <g id="Group_2512" data-name="Group 2512" clip-path="url(#clip-path-8)">
            <path id="Path_13888" data-name="Path 13888" d="M130.92,71q-.218,2.956-.437,5.911c-.132,1.783,2.645,1.774,2.777,0q.218-2.954.437-5.911c.131-1.783-2.645-1.774-2.777,0" transform="translate(-130.479 -69.667)" fill="#ffe424"/>
          </g>
        </g>
      </g>
      <g id="Group_2517" data-name="Group 2517" transform="translate(17699.955 -666.048)" opacity="0.45">
        <g id="Group_2516" data-name="Group 2516">
          <g id="Group_2515" data-name="Group 2515" clip-path="url(#clip-path-9)">
            <path id="Path_13889" data-name="Path 13889" d="M181.337,64.07l12.489,4.185c1.7.568,2.427-2.112.739-2.678l-12.489-4.185c-1.7-.568-2.427,2.112-.739,2.678" transform="translate(-180.378 -61.314)" fill="#ffc91f"/>
          </g>
        </g>
      </g>
      <g id="Group_2520" data-name="Group 2520" transform="translate(17715.838 -658.203)" opacity="0.45">
        <g id="Group_2519" data-name="Group 2519">
          <g id="Group_2518" data-name="Group 2518" clip-path="url(#clip-path-10)">
            <path id="Path_13890" data-name="Path 13890" d="M197.645,71.131q.067,2.953-.1,5.9c-.1,1.785,2.673,1.78,2.777,0q.171-2.949.1-5.9c-.041-1.784-2.817-1.79-2.777,0" transform="translate(-197.539 -69.791)" fill="#ffc91f"/>
          </g>
        </g>
      </g>
      <g id="Group_2523" data-name="Group 2523" transform="translate(17656.615 -612.947)" opacity="0.45">
        <g id="Group_2522" data-name="Group 2522">
          <g id="Group_2521" data-name="Group 2521" clip-path="url(#clip-path-11)">
            <path id="Path_13891" data-name="Path 13891" d="M133.554,120.027l.064,7a1.389,1.389,0,0,0,2.777,0q-.032-3.5-.064-7a1.389,1.389,0,0,0-2.777,0" transform="translate(-133.554 -118.686)" fill="#ffc91f"/>
          </g>
        </g>
      </g>
      <g id="Group_2526" data-name="Group 2526" transform="translate(17656.627 -629.171)" opacity="0.45">
        <g id="Group_2525" data-name="Group 2525">
          <g id="Group_2524" data-name="Group 2524" clip-path="url(#clip-path-12)">
            <path id="Path_13892" data-name="Path 13892" d="M133.566,102.5l.105,11.453a1.389,1.389,0,0,0,2.777,0q-.053-5.727-.106-11.453a1.389,1.389,0,0,0-2.777,0" transform="translate(-133.566 -101.157)" fill="#ffc91f"/>
          </g>
        </g>
      </g>
      <g id="Group_2529" data-name="Group 2529" transform="translate(17713.389 -634.188)" opacity="0.51">
        <g id="Group_2528" data-name="Group 2528">
          <g id="Group_2527" data-name="Group 2527" clip-path="url(#clip-path-13)">
            <path id="Path_13893" data-name="Path 13893" d="M195.052,97.077q-.2,8.254-.151,16.51a1.389,1.389,0,0,0,2.777,0q-.05-8.257.151-16.51c.044-1.787-2.733-1.786-2.777,0" transform="translate(-194.891 -95.737)" fill="#ffae1f"/>
          </g>
        </g>
      </g>
      <g id="Group_2532" data-name="Group 2532" transform="translate(17713.35 -612.428)" opacity="0.51">
        <g id="Group_2531" data-name="Group 2531">
          <g id="Group_2530" data-name="Group 2530" clip-path="url(#clip-path-14)">
            <path id="Path_13894" data-name="Path 13894" d="M194.968,120.578a34.744,34.744,0,0,0,.166,7.254c.224,1.748,3,1.771,2.777,0a34.744,34.744,0,0,1-.166-7.254c.145-1.781-2.632-1.772-2.777,0" transform="translate(-194.851 -119.246)" fill="#ffae1f"/>
          </g>
        </g>
      </g>
      <path id="Path_13895" data-name="Path 13895" d="M118.3,58.939q5.433-1.641,10.757-3.6c1.664-.611.945-3.3-.738-2.678q-5.327,1.956-10.758,3.6c-1.706.516-.978,3.2.739,2.678" transform="translate(17524.324 -726.712)" fill="#ef4b4b"/>
      <path id="Path_13896" data-name="Path 13896" d="M115.045,82.628q-.314,9.895-.045,19.788c.048,1.784,2.825,1.791,2.777,0q-.269-9.9.045-19.788c.056-1.787-2.72-1.785-2.777,0" transform="translate(17524.451 -728.849)" fill="#ef4b4b"/>
      <path id="Path_13897" data-name="Path 13897" d="M115.208,109q-.1,3.356-.038,6.712a1.389,1.389,0,0,0,2.777,0q-.067-3.357.038-6.712c.056-1.787-2.721-1.785-2.777,0" transform="translate(17524.432 -730.812)" fill="#ef4b4b"/>
    </g>
  </g>
</svg>
