<svg xmlns="http://www.w3.org/2000/svg" width="11.897" height="11.898" viewBox="0 0 11.897 11.898">
  <g id="help-web-button" transform="translate(-0.008)">
    <path id="Path_14114" data-name="Path 14114" d="M5.957,0a5.949,5.949,0,1,0,5.948,5.946A5.948,5.948,0,0,0,5.957,0Zm.424,9.256a.7.7,0,0,1-.48.185.724.724,0,0,1-.491-.182.639.639,0,0,1-.21-.51.657.657,0,0,1,.2-.489.685.685,0,0,1,.5-.2.677.677,0,0,1,.688.687A.645.645,0,0,1,6.381,9.256ZM8.1,4.985a2.1,2.1,0,0,1-.378.51q-.219.215-.787.722a3.255,3.255,0,0,0-.251.251,1.024,1.024,0,0,0-.141.2.956.956,0,0,0-.071.18q-.025.09-.076.316a.513.513,0,0,1-.549.48.562.562,0,0,1-.4-.157.616.616,0,0,1-.163-.466,1.717,1.717,0,0,1,.12-.671,1.7,1.7,0,0,1,.318-.5,7.293,7.293,0,0,1,.535-.51q.3-.258.427-.39A1.319,1.319,0,0,0,6.9,4.657a.705.705,0,0,0,.09-.35.814.814,0,0,0-.274-.623,1,1,0,0,0-.708-.254.98.98,0,0,0-.747.256,2.043,2.043,0,0,0-.406.754q-.157.521-.6.521a.586.586,0,0,1-.436-.182.557.557,0,0,1-.177-.394A1.669,1.669,0,0,1,3.931,3.5a2.165,2.165,0,0,1,.821-.745,2.582,2.582,0,0,1,1.259-.3A2.686,2.686,0,0,1,7.192,2.7a1.914,1.914,0,0,1,.791.671,1.647,1.647,0,0,1,.279.922A1.421,1.421,0,0,1,8.1,4.985Z" fill="#010002"/>
  </g>
</svg>
