<svg xmlns="http://www.w3.org/2000/svg" width="95.198" height="42.509" viewBox="0 0 95.198 42.509">
  <g id="Group_3005" data-name="Group 3005" transform="translate(-921 -603.819)">
    <g id="van" transform="translate(943.932 603.819)">
      <g id="Group_44" data-name="Group 44" transform="translate(0 0)">
        <path id="Path_322" data-name="Path 322" d="M59.513,7.439a7.439,7.439,0,1,0-7.439,7.439A7.439,7.439,0,0,0,59.513,7.439Zm-10.627,0a3.188,3.188,0,1,1,3.188,3.188A3.188,3.188,0,0,1,48.886,7.439Zm-34.008,0a7.439,7.439,0,1,0-7.439,7.439A7.439,7.439,0,0,0,14.878,7.439Zm-10.627,0a3.188,3.188,0,1,1,3.188,3.188A3.188,3.188,0,0,1,4.251,7.439Z" transform="translate(6.377 27.631)" fill-rule="evenodd"/>
        <path id="Path_323" data-name="Path 323" d="M5.314,0H38.259a2.125,2.125,0,0,1,2.1,1.825L41.888,12.5a2.925,2.925,0,0,0,2.747,2.379H62.7a2.125,2.125,0,0,1,1.219.384c.416.291.972.69,1.7,1.22.509.37,1.049.766,1.587,1.162.323.238.573.422.671.5a11.245,11.245,0,0,1,4.386,8.431v6.374a2.125,2.125,0,0,1-2.126,2.125H68.015a9.565,9.565,0,0,0-19.129,0H23.38a9.565,9.565,0,0,0-19.129,0H2.125A2.125,2.125,0,0,1,0,32.945V22.317a2.139,2.139,0,0,1,.026-.332l2.8-17.765A2.126,2.126,0,0,1,3.188,0Z" transform="translate(0)" fill="#fc6143" fill-rule="evenodd"/>
        <path id="Path_324" data-name="Path 324" d="M18.067,4.251A11.675,11.675,0,0,0,9.565,0H2.125a2.125,2.125,0,0,0,0,4.251H9.565a7.51,7.51,0,0,1,5.1,2.551l7.014,9.352a2.123,2.123,0,0,0,.521.493l3.188,2.125a2.125,2.125,0,1,0,2.358-3.537l-2.88-1.92Z" transform="translate(36.133 0)" fill="#fc6143" fill-rule="evenodd"/>
      </g>
    </g>
    <rect id="Rectangle_122" data-name="Rectangle 122" width="19.351" height="5.278" rx="2.639" transform="translate(934.256 612.401)" fill="#d4472b"/>
    <rect id="Rectangle_336" data-name="Rectangle 336" width="19" height="5" rx="2.5" transform="translate(921 625)" fill="#d4472b"/>
  </g>
</svg>
