<svg xmlns="http://www.w3.org/2000/svg" width="65.138" height="68.085" viewBox="0 0 65.138 68.085">
  <g id="Food_delivery" data-name="Food delivery" transform="translate(-2 -1)">
    <path id="Path_625" data-name="Path 625" d="M40.483,6V57.8H2V6H16.8a4.825,4.825,0,0,0,8.881,0Z" transform="translate(0 2.4)" fill="#9fdbf3"/>
    <path id="Path_626" data-name="Path 626" d="M39.042,5.44v51.8H13.881A8.881,8.881,0,0,1,5,48.363V1H34.6a4.44,4.44,0,0,1,4.44,4.44Z" transform="translate(1.44 0)" fill="#b2e5fb"/>
    <path id="Path_627" data-name="Path 627" d="M57.522,14.44c0,22.468.1,21.225-.266,22.2a4.44,4.44,0,0,1-4.174,2.96H33.249l-8.289,5.92V39.336A4.44,4.44,0,0,1,22,35.162V14.44A4.44,4.44,0,0,1,26.44,10H53.082A4.44,4.44,0,0,1,57.522,14.44Z" transform="translate(9.602 4.321)" fill="#fc6143"/>
    <path id="Path_628" data-name="Path 628" d="M56.082,14.44c0,22.468.1,21.225-.266,22.2H30.92A5.92,5.92,0,0,1,25,30.721V10H51.642A4.44,4.44,0,0,1,56.082,14.44Z" transform="translate(11.042 4.321)" fill="#fc6143"/>
    <path id="Path_629" data-name="Path 629" d="M40.483,41v4.44a4.44,4.44,0,0,1-4.44,4.44H6.44A4.44,4.44,0,0,1,2,45.44V41Z" transform="translate(0 19.204)" fill="#2e2e2e"/>
    <path id="Path_630" data-name="Path 630" d="M40.483,5.44V8.4h-14.8a4.825,4.825,0,0,1-8.881,0H2V5.44A4.44,4.44,0,0,1,6.44,1h29.6a4.44,4.44,0,0,1,4.44,4.44Z" transform="translate(0 0)"/>
    <path id="Path_631" data-name="Path 631" d="M39.042,41c0,4.662.089,5-.266,5.92H9.44A4.44,4.44,0,0,1,5,42.48V41Z" transform="translate(1.44 19.204)"/>
    <path id="Path_632" data-name="Path 632" d="M39.059,5.44H7.977A3.079,3.079,0,0,1,5.283,1H34.619A4.44,4.44,0,0,1,39.059,5.44Z" transform="translate(1.424 0)" fill="#2e2e2e"/>
    <path id="Path_633" data-name="Path 633" d="M15.477,5.96a1.48,1.48,0,1,1,1.376-.913A1.48,1.48,0,0,1,15.477,5.96Z" transform="translate(5.764 0.96)" fill="#425b72"/>
    <path id="Path_634" data-name="Path 634" d="M17.841,16.551c0,3.715-2.96,7.4-5.92,9.251,0,0-5.92-3.7-5.92-9.251A5.758,5.758,0,0,1,11.92,11,5.743,5.743,0,0,1,17.841,16.551Z" transform="translate(1.92 4.8)" fill="#e14c2f"/>
    <path id="Path_635" data-name="Path 635" d="M13.3,23.911C11.819,22.786,8,19.471,8,15.03a5.521,5.521,0,0,1,1.776-3.952C16.052,9.939,20.181,17.221,13.3,23.911Z" transform="translate(2.881 4.782)" fill="#fc6143"/>
    <path id="Path_636" data-name="Path 636" d="M33,15.96V14.48a1.48,1.48,0,1,1,2.96,0v1.48a1.48,1.48,0,1,1-2.96,0Z" transform="translate(14.883 5.761)" fill="#425b72"/>
    <path id="Path_637" data-name="Path 637" d="M31.642,45.2H10.18a5.18,5.18,0,1,1,0-10.361h7.4a2.22,2.22,0,1,0,0-4.44h-2.22a4.44,4.44,0,0,1-4.44-4.44V24.48a1.48,1.48,0,1,1,2.96,0v1.48a1.48,1.48,0,0,0,1.48,1.48h2.22a5.18,5.18,0,1,1,0,10.361h-7.4a2.22,2.22,0,1,0,0,4.44H31.642a1.48,1.48,0,1,1,0,2.96Z" transform="translate(1.44 10.562)" fill="#425b72"/>
    <path id="Path_638" data-name="Path 638" d="M11.96,15.48A1.48,1.48,0,1,1,10.48,14,1.48,1.48,0,0,1,11.96,15.48Z" transform="translate(3.361 6.241)" fill="#edebf2"/>
    <path id="Path_639" data-name="Path 639" d="M47.721,25.361H27a10.361,10.361,0,0,1,20.721,0Z" transform="translate(12.003 6.721)" fill="#dad7e5"/>
    <path id="Path_640" data-name="Path 640" d="M45.967,22.4H33.519a3.715,3.715,0,0,1-3.212-5.654A9.665,9.665,0,0,1,36.035,15a10.361,10.361,0,0,1,9.931,7.4Z" transform="translate(13.328 6.721)" fill="#edebf2"/>
    <path id="Path_641" data-name="Path 641" d="M47.721,22l-1.48,5.92H28.48L27,22Z" transform="translate(12.003 10.082)" fill="#dad7e5"/>
    <path id="Path_642" data-name="Path 642" d="M46.521,22l-.74,2.96H33.289A3.922,3.922,0,0,1,29.5,22Z" transform="translate(13.203 10.082)" fill="#edebf2"/>
    <path id="Path_643" data-name="Path 643" d="M50.162,23.96H26.48a1.48,1.48,0,0,1,0-2.96H50.162a1.48,1.48,0,0,1,0,2.96Z" transform="translate(11.042 9.602)" fill="#c6c3d8"/>
  </g>
</svg>
