<svg xmlns="http://www.w3.org/2000/svg" width="27.88" height="300.551" viewBox="0 0 27.88 300.551">
  <g id="Group_3005" data-name="Group 3005" transform="translate(-15735 -1599.413)">
    <g id="pen-tool" transform="translate(15741.999 1599.413)">
      <path id="Path_13785" data-name="Path 13785" d="M123.151,241a.69.69,0,1,0,.69.69A.691.691,0,0,0,123.151,241Zm0,0" transform="translate(-116.824 -229.907)" fill="#fff"/>
      <path id="Path_13786" data-name="Path 13786" d="M32.461,452h9.666v2.762H32.461Zm0,0" transform="translate(-30.966 -431.195)" fill="#fff"/>
      <path id="Path_13787" data-name="Path 13787" d="M6.327,13.855a2.066,2.066,0,0,1-.69-4.016V0L0,11.823l.693,1.04a13.086,13.086,0,0,1,2.131,6.562H9.83a13.086,13.086,0,0,1,2.131-6.562l.693-1.04L7.018,0V9.839a2.066,2.066,0,0,1-.69,4.016Zm0,0" transform="translate(0.001 0)" fill="#fff"/>
    </g>
    <g id="settings" transform="translate(15738 1670.312)">
      <g id="Group_2452" data-name="Group 2452" transform="translate(0)">
        <path id="Path_13793" data-name="Path 13793" d="M27.542,13.27l-2-1.565a7.877,7.877,0,0,0,.047-.822,7.64,7.64,0,0,0-.047-.822l2-1.566a.981.981,0,0,0,.237-1.25L25.7,3.646a.965.965,0,0,0-1.2-.433l-2.361.948a8.1,8.1,0,0,0-1.418-.823l-.359-2.5A.963.963,0,0,0,19.4,0H15.224a.961.961,0,0,0-.96.827L13.9,3.341a8.345,8.345,0,0,0-1.415.823l-2.367-.951a.984.984,0,0,0-1.195.425l-2.083,3.6A.975.975,0,0,0,7.08,8.5l2,1.565a7.177,7.177,0,0,0,0,1.643l-2,1.566a.981.981,0,0,0-.236,1.25l2.081,3.6a.963.963,0,0,0,1.2.433l2.361-.948a8.167,8.167,0,0,0,1.417.823l.359,2.5a.963.963,0,0,0,.961.836H19.4a.962.962,0,0,0,.961-.827l.36-2.513a8.384,8.384,0,0,0,1.415-.824l2.367.951a.975.975,0,0,0,.356.067.958.958,0,0,0,.839-.492l2.09-3.619A.979.979,0,0,0,27.542,13.27ZM17.31,14.513a3.628,3.628,0,1,1,3.628-3.628A3.632,3.632,0,0,1,17.31,14.513Z" transform="translate(-6.71)" fill="#fff"/>
      </g>
    </g>
    <g id="easy-to-use" transform="translate(15736 1739.413)">
      <path id="Path_13788" data-name="Path 13788" d="M390.709,68.182a.745.745,0,0,0,1.053,0l1.756-1.756a.745.745,0,1,0-1.053-1.053l-1.756,1.756A.745.745,0,0,0,390.709,68.182Z" transform="translate(-371.1 -63.459)" fill="#fff"/>
      <path id="Path_13789" data-name="Path 13789" d="M411.726,138.643a.745.745,0,0,0,.912.527l2.4-.643a.745.745,0,1,0-.385-1.439l-2.4.643A.745.745,0,0,0,411.726,138.643Z" transform="translate(-391.257 -131.796)" fill="#fff"/>
      <path id="Path_13790" data-name="Path 13790" d="M341.542,34.863a.745.745,0,0,0,.912-.527l.643-2.4a.745.745,0,1,0-1.439-.386l-.643,2.4A.745.745,0,0,0,341.542,34.863Z" transform="translate(-324.058 -31)" fill="#fff"/>
      <path id="Path_13791" data-name="Path 13791" d="M118.782,90.91H110.2a.745.745,0,0,1-.719-.938l.865-3.227a1.676,1.676,0,1,0-3.238-.867l-.412,1.536a4.717,4.717,0,0,1-4.557,3.5H100V102.33h1.366l.372.5a3.724,3.724,0,0,0,2.979,1.49h6.517a1.676,1.676,0,1,0,0-3.352h.993a1.676,1.676,0,0,0,0-3.352h.993a1.676,1.676,0,0,0,0-3.352h5.561a1.676,1.676,0,1,0,0-3.352Z" transform="translate(-95.034 -81.971)" fill="#fff"/>
      <path id="Path_13792" data-name="Path 13792" d="M2.731,181H.745a.745.745,0,0,0-.745.745v12.911a.745.745,0,0,0,.745.745H2.731a.745.745,0,0,0,.745-.745V181.745A.745.745,0,0,0,2.731,181Z" transform="translate(0 -173.552)" fill="#fff"/>
    </g>
    <path id="secure" d="M30.338,2.868a.67.67,0,0,0-.484-.553L21.621.025a.669.669,0,0,0-.359,0l-8.234,2.29a.67.67,0,0,0-.484.553c-.048.343-1.137,8.457,1.657,12.493a13.145,13.145,0,0,0,7.082,5.107.672.672,0,0,0,.314,0,13.145,13.145,0,0,0,7.082-5.107C31.476,11.325,30.386,3.211,30.338,2.868ZM26.751,7.6l-5.616,5.616a.669.669,0,0,1-.947,0L16.716,9.748a.669.669,0,0,1,0-.947l.689-.689a.669.669,0,0,1,.947,0l2.31,2.31,4.453-4.453a.669.669,0,0,1,.947,0l.689.689A.67.67,0,0,1,26.751,7.6Z" transform="translate(15727.703 1809.09)" fill="#fff"/>
    <g id="customer-service" transform="translate(15735 1876.908)">
      <path id="path2" d="M19.532,12.12a10.969,10.969,0,0,0-10.9,7.9,1.781,1.781,0,0,0-.707.065,3.615,3.615,0,0,0-2.167,1.892,6.4,6.4,0,0,0-.444,3.6,5.475,5.475,0,0,0,1.462,3.1,2.462,2.462,0,0,0,2.286.734c1.174-.251,1.757-.438,1.592-1.532l-.8-5.3a9.329,9.329,0,0,1,18.63.013l-.557,3.71a9.321,9.321,0,0,1-7.882,6.085H17.677a1.1,1.1,0,0,0-1.1,1.1v.583a1.1,1.1,0,0,0,1.1,1.1h2.99a1.1,1.1,0,0,0,1.1-1.1v-.3a11.01,11.01,0,0,0,6.557-4.608l.958.254a2.382,2.382,0,0,0,2.286-.734,5.478,5.478,0,0,0,1.462-3.1,6.442,6.442,0,0,0-.444-3.6,3.124,3.124,0,0,0-1.9-1.82,4.065,4.065,0,0,0-.98-.137,10.967,10.967,0,0,0-10.179-7.9Z" transform="translate(-5.232 -12.114)" fill="#fff" fill-rule="evenodd"/>
      <path id="path4" d="M34.8,27.943a1.433,1.433,0,1,1-1.435,1.433A1.434,1.434,0,0,1,34.8,27.943Zm-3.859,0A1.433,1.433,0,1,1,29.5,29.377,1.432,1.432,0,0,1,30.937,27.943Zm-3.858,0a1.433,1.433,0,1,1-1.433,1.433A1.433,1.433,0,0,1,27.079,27.943Zm3.858-6.156a7.624,7.624,0,0,0-5.53,12.836l-.453,2.03c-.149.668.314,1.118.915.783l1.983-1.106a7.724,7.724,0,0,0,3.086.635,7.59,7.59,0,0,0,0-15.179Z" transform="translate(-16.997 -18.396)" fill="#fff" fill-rule="evenodd"/>
    </g>
  </g>
</svg>
