<svg id="information-button" xmlns="http://www.w3.org/2000/svg" width="13.869" height="13.869" viewBox="0 0 13.869 13.869">
  <path id="Path_14101" data-name="Path 14101" d="M6.934,0a6.935,6.935,0,1,0,6.935,6.934A6.935,6.935,0,0,0,6.934,0ZM8.378,10.747q-.535.211-.854.322a2.253,2.253,0,0,1-.741.111,1.477,1.477,0,0,1-1.008-.316,1.021,1.021,0,0,1-.359-.8,2.915,2.915,0,0,1,.026-.387c.018-.132.047-.279.086-.446L5.976,7.65c.039-.151.073-.3.1-.429a1.9,1.9,0,0,0,.04-.372.572.572,0,0,0-.124-.421.707.707,0,0,0-.477-.118,1.253,1.253,0,0,0-.355.053c-.12.037-.225.07-.311.1l.118-.486q.439-.179.839-.306a2.48,2.48,0,0,1,.757-.128,1.449,1.449,0,0,1,.993.311,1.034,1.034,0,0,1,.349.808q0,.1-.024.362a2.424,2.424,0,0,1-.089.476L7.348,9.078c-.036.126-.069.271-.1.432a2.285,2.285,0,0,0-.043.367.528.528,0,0,0,.14.427.785.785,0,0,0,.485.114,1.408,1.408,0,0,0,.367-.057,2.09,2.09,0,0,0,.3-.1ZM8.3,4.361a1.061,1.061,0,0,1-.748.289A1.072,1.072,0,0,1,6.8,4.361a.922.922,0,0,1-.313-.7.931.931,0,0,1,.313-.7,1.064,1.064,0,0,1,.751-.292,1.052,1.052,0,0,1,.748.292.946.946,0,0,1,0,1.4Z" fill="#030104"/>
</svg>
