<svg xmlns="http://www.w3.org/2000/svg" width="79.868" height="177.255" viewBox="0 0 79.868 177.255">
  <g id="Group_3005" data-name="Group 3005" transform="translate(-1861 797)">
    <g id="shopping-bag" transform="translate(1808.977 -797)">
      <g id="Group_2698" data-name="Group 2698" transform="translate(53.023 3.699)">
        <g id="Group_2697" data-name="Group 2697">
          <path id="Path_14095" data-name="Path 14095" d="M67.882,112.769l-.837-10.552A1.319,1.319,0,0,0,65.736,101H64.082v2.451a.55.55,0,0,1-1.1,0V101H57.931v2.451a.55.55,0,0,1-1.1,0V101H55.179a1.318,1.318,0,0,0-1.309,1.211l-.838,10.555a3.054,3.054,0,0,0,3.044,3.287h8.762a3.053,3.053,0,0,0,3.044-3.288Zm-4.95-5.369-2.84,2.84a.549.549,0,0,1-.777,0l-1.332-1.34a.549.549,0,1,1,.777-.777l.943.943,2.452-2.452a.549.549,0,0,1,.777.777Z" transform="translate(-53.023 -101.005)"/>
        </g>
      </g>
      <g id="Group_2700" data-name="Group 2700" transform="translate(56.833)">
        <g id="Group_2699" data-name="Group 2699">
          <path id="Path_14096" data-name="Path 14096" d="M160.664,0a3.629,3.629,0,0,0-3.625,3.625V3.7h1.1V3.625a2.526,2.526,0,1,1,5.052,0V3.7h1.1V3.625A3.629,3.629,0,0,0,160.664,0Z" transform="translate(-157.039)"/>
        </g>
      </g>
    </g>
    <g id="shopping-bag-2" data-name="shopping-bag" transform="translate(1872.977 -797)">
      <g id="Group_2698-2" data-name="Group 2698" transform="translate(53.023 3.699)">
        <g id="Group_2697-2" data-name="Group 2697">
          <path id="Path_14095-2" data-name="Path 14095" d="M67.882,112.769l-.837-10.552A1.319,1.319,0,0,0,65.736,101H64.082v2.451a.55.55,0,0,1-1.1,0V101H57.931v2.451a.55.55,0,0,1-1.1,0V101H55.179a1.318,1.318,0,0,0-1.309,1.211l-.838,10.555a3.054,3.054,0,0,0,3.044,3.287h8.762a3.053,3.053,0,0,0,3.044-3.288Zm-4.95-5.369-2.84,2.84a.549.549,0,0,1-.777,0l-1.332-1.34a.549.549,0,1,1,.777-.777l.943.943,2.452-2.452a.549.549,0,0,1,.777.777Z" transform="translate(-53.023 -101.005)" fill="#fc6143"/>
        </g>
      </g>
      <g id="Group_2700-2" data-name="Group 2700" transform="translate(56.833)">
        <g id="Group_2699-2" data-name="Group 2699">
          <path id="Path_14096-2" data-name="Path 14096" d="M160.664,0a3.629,3.629,0,0,0-3.625,3.625V3.7h1.1V3.625a2.526,2.526,0,1,1,5.052,0V3.7h1.1V3.625A3.629,3.629,0,0,0,160.664,0Z" transform="translate(-157.039)" fill="#fc6143"/>
        </g>
      </g>
    </g>
    <g id="profile-user" transform="translate(1861 -742)">
      <path id="Path_14097" data-name="Path 14097" d="M8.5,0A8.5,8.5,0,1,0,17,8.5,8.5,8.5,0,0,0,8.5,0Zm0,2.542A2.812,2.812,0,1,1,5.689,5.354,2.812,2.812,0,0,1,8.5,2.542Zm0,12.236a6.238,6.238,0,0,1-4.062-1.5,1.2,1.2,0,0,1-.42-.911A2.835,2.835,0,0,1,6.865,9.535h3.272a2.831,2.831,0,0,1,2.845,2.835,1.2,1.2,0,0,1-.42.91,6.236,6.236,0,0,1-4.062,1.5Z"/>
    </g>
    <g id="profile-user-2" data-name="profile-user" transform="translate(1923.868 -742)">
      <path id="Path_14097-2" data-name="Path 14097" d="M8.5,0A8.5,8.5,0,1,0,17,8.5,8.5,8.5,0,0,0,8.5,0Zm0,2.542A2.812,2.812,0,1,1,5.689,5.354,2.812,2.812,0,0,1,8.5,2.542Zm0,12.236a6.238,6.238,0,0,1-4.062-1.5,1.2,1.2,0,0,1-.42-.911A2.835,2.835,0,0,1,6.865,9.535h3.272a2.831,2.831,0,0,1,2.845,2.835,1.2,1.2,0,0,1-.42.91,6.236,6.236,0,0,1-4.062,1.5Z" fill="#fc6143"/>
    </g>
    <path id="padlock" d="M14.813,6.75H14.25V4.5a4.5,4.5,0,1,0-9,0V6.75H4.688A1.69,1.69,0,0,0,3,8.438v7.875A1.69,1.69,0,0,0,4.688,18H14.813A1.69,1.69,0,0,0,16.5,16.313V8.438A1.69,1.69,0,0,0,14.813,6.75ZM6.75,4.5a3,3,0,1,1,6,0V6.75h-6Zm3.75,8.042V14.25a.75.75,0,0,1-1.5,0V12.542a1.5,1.5,0,1,1,1.5,0Z" transform="translate(1860 -688.747)"/>
    <path id="padlock-2" data-name="padlock" d="M14.813,6.75H14.25V4.5a4.5,4.5,0,1,0-9,0V6.75H4.688A1.69,1.69,0,0,0,3,8.438v7.875A1.69,1.69,0,0,0,4.688,18H14.813A1.69,1.69,0,0,0,16.5,16.313V8.438A1.69,1.69,0,0,0,14.813,6.75ZM6.75,4.5a3,3,0,1,1,6,0V6.75h-6Zm3.75,8.042V14.25a.75.75,0,0,1-1.5,0V12.542a1.5,1.5,0,1,1,1.5,0Z" transform="translate(1922.618 -688.747)" fill="#fc6143"/>
    <g id="sent" transform="translate(1829.943 -634.494)">
      <g id="Group_2702" data-name="Group 2702" transform="translate(33.057)">
        <g id="Group_2701" data-name="Group 2701">
          <path id="Path_14098" data-name="Path 14098" d="M275.318.414A.832.832,0,0,0,274.6,0h-3.084V3.648h5.672Z" transform="translate(-264.647)"/>
          <path id="Path_14099" data-name="Path 14099" d="M49.5,0H46.383a.832.832,0,0,0-.719.415L43.8,3.648h5.7Z" transform="translate(-43.492)"/>
          <path id="Path_14100" data-name="Path 14100" d="M33.057,156.648v9.22a1.018,1.018,0,0,0,1.017,1.016H44.885a1.018,1.018,0,0,0,1.017-1.016v-9.22Zm8.384,3.877L39.2,162.761a.432.432,0,0,1-.611,0l-1.048-1.048a.432.432,0,1,1,.612-.611l.742.742,1.93-1.93a.432.432,0,0,1,.611.611Z" transform="translate(-33.057 -152.135)"/>
        </g>
      </g>
    </g>
    <g id="sent-2" data-name="sent" transform="translate(1892.943 -634.494)">
      <g id="Group_2702-2" data-name="Group 2702" transform="translate(33.057)">
        <g id="Group_2701-2" data-name="Group 2701">
          <path id="Path_14098-2" data-name="Path 14098" d="M275.318.414A.832.832,0,0,0,274.6,0h-3.084V3.648h5.672Z" transform="translate(-264.647)" fill="#fc6143"/>
          <path id="Path_14099-2" data-name="Path 14099" d="M49.5,0H46.383a.832.832,0,0,0-.719.415L43.8,3.648h5.7Z" transform="translate(-43.492)" fill="#fc6143"/>
          <path id="Path_14100-2" data-name="Path 14100" d="M33.057,156.648v9.22a1.018,1.018,0,0,0,1.017,1.016H44.885a1.018,1.018,0,0,0,1.017-1.016v-9.22Zm8.384,3.877L39.2,162.761a.432.432,0,0,1-.611,0l-1.048-1.048a.432.432,0,1,1,.612-.611l.742.742,1.93-1.93a.432.432,0,0,1,.611.611Z" transform="translate(-33.057 -152.135)" fill="#fc6143"/>
        </g>
      </g>
    </g>
  </g>
</svg>
