<svg xmlns="http://www.w3.org/2000/svg" width="79.868" height="287" viewBox="0 0 79.868 287">
  <g id="Group_1" data-name="Group 1" transform="translate(-24 -242)">
    <g id="shopping-bag" transform="translate(-28.023 242)">
      <g id="Group_2698" data-name="Group 2698" transform="translate(53.023 3.699)">
        <g id="Group_2697" data-name="Group 2697">
          <path id="Path_14095" data-name="Path 14095" d="M67.882,112.769l-.837-10.552A1.319,1.319,0,0,0,65.736,101H64.082v2.451a.55.55,0,1,1-1.1,0V101H57.931v2.451a.55.55,0,1,1-1.1,0V101H55.179a1.318,1.318,0,0,0-1.309,1.211l-.838,10.555a3.054,3.054,0,0,0,3.044,3.287h8.762a3.053,3.053,0,0,0,3.044-3.288Zm-4.95-5.369-2.84,2.84a.549.549,0,0,1-.777,0l-1.332-1.34a.549.549,0,1,1,.777-.777l.943.943,2.452-2.452a.549.549,0,0,1,.777.777Z" transform="translate(-53.023 -101.005)"/>
        </g>
      </g>
      <g id="Group_2700" data-name="Group 2700" transform="translate(56.833)">
        <g id="Group_2699" data-name="Group 2699">
          <path id="Path_14096" data-name="Path 14096" d="M160.664,0a3.629,3.629,0,0,0-3.625,3.625V3.7h1.1V3.625a2.526,2.526,0,1,1,5.052,0V3.7h1.1V3.625A3.629,3.629,0,0,0,160.664,0Z" transform="translate(-157.039)"/>
        </g>
      </g>
    </g>
    <g id="shopping-bag-2" data-name="shopping-bag" transform="translate(35.977 242)">
      <g id="Group_2698-2" data-name="Group 2698" transform="translate(53.023 3.699)">
        <g id="Group_2697-2" data-name="Group 2697">
          <path id="Path_14095-2" data-name="Path 14095" d="M67.882,112.769l-.837-10.552A1.319,1.319,0,0,0,65.736,101H64.082v2.451a.55.55,0,1,1-1.1,0V101H57.931v2.451a.55.55,0,1,1-1.1,0V101H55.179a1.318,1.318,0,0,0-1.309,1.211l-.838,10.555a3.054,3.054,0,0,0,3.044,3.287h8.762a3.053,3.053,0,0,0,3.044-3.288Zm-4.95-5.369-2.84,2.84a.549.549,0,0,1-.777,0l-1.332-1.34a.549.549,0,1,1,.777-.777l.943.943,2.452-2.452a.549.549,0,0,1,.777.777Z" transform="translate(-53.023 -101.005)" fill="#fc6143"/>
        </g>
      </g>
      <g id="Group_2700-2" data-name="Group 2700" transform="translate(56.833)">
        <g id="Group_2699-2" data-name="Group 2699">
          <path id="Path_14096-2" data-name="Path 14096" d="M160.664,0a3.629,3.629,0,0,0-3.625,3.625V3.7h1.1V3.625a2.526,2.526,0,1,1,5.052,0V3.7h1.1V3.625A3.629,3.629,0,0,0,160.664,0Z" transform="translate(-157.039)" fill="#fc6143"/>
        </g>
      </g>
    </g>
    <g id="profile-user" transform="translate(24 297)">
      <path id="Path_14097" data-name="Path 14097" d="M8.5,0A8.5,8.5,0,1,0,17,8.5,8.5,8.5,0,0,0,8.5,0Zm0,2.542A2.812,2.812,0,1,1,5.689,5.354,2.812,2.812,0,0,1,8.5,2.542Zm0,12.236a6.238,6.238,0,0,1-4.062-1.5,1.2,1.2,0,0,1-.42-.911A2.835,2.835,0,0,1,6.865,9.535h3.272a2.831,2.831,0,0,1,2.845,2.835,1.2,1.2,0,0,1-.42.91A6.236,6.236,0,0,1,8.5,14.78Z"/>
    </g>
    <g id="profile-user-2" data-name="profile-user" transform="translate(86.868 297)">
      <path id="Path_14097-2" data-name="Path 14097" d="M8.5,0A8.5,8.5,0,1,0,17,8.5,8.5,8.5,0,0,0,8.5,0Zm0,2.542A2.812,2.812,0,1,1,5.689,5.354,2.812,2.812,0,0,1,8.5,2.542Zm0,12.236a6.238,6.238,0,0,1-4.062-1.5,1.2,1.2,0,0,1-.42-.911A2.835,2.835,0,0,1,6.865,9.535h3.272a2.831,2.831,0,0,1,2.845,2.835,1.2,1.2,0,0,1-.42.91A6.236,6.236,0,0,1,8.5,14.78Z" fill="#fc6143"/>
    </g>
    <path id="padlock" d="M14.813,6.75H14.25V4.5a4.5,4.5,0,1,0-9,0V6.75H4.688A1.69,1.69,0,0,0,3,8.438v7.875A1.69,1.69,0,0,0,4.688,18H14.813A1.69,1.69,0,0,0,16.5,16.313V8.438A1.69,1.69,0,0,0,14.813,6.75ZM6.75,4.5a3,3,0,1,1,6,0V6.75h-6Zm3.75,8.042V14.25a.75.75,0,0,1-1.5,0V12.542a1.5,1.5,0,1,1,1.5,0Z" transform="translate(23 350.253)"/>
    <path id="padlock-2" data-name="padlock" d="M14.813,6.75H14.25V4.5a4.5,4.5,0,1,0-9,0V6.75H4.688A1.69,1.69,0,0,0,3,8.438v7.875A1.69,1.69,0,0,0,4.688,18H14.813A1.69,1.69,0,0,0,16.5,16.313V8.438A1.69,1.69,0,0,0,14.813,6.75ZM6.75,4.5a3,3,0,1,1,6,0V6.75h-6Zm3.75,8.042V14.25a.75.75,0,0,1-1.5,0V12.542a1.5,1.5,0,1,1,1.5,0Z" transform="translate(85.618 350.253)" fill="#fc6143"/>
    <g id="sent" transform="translate(-7.057 404.506)">
      <g id="Group_2702" data-name="Group 2702" transform="translate(33.057)">
        <g id="Group_2701" data-name="Group 2701">
          <path id="Path_14098" data-name="Path 14098" d="M275.318.414A.832.832,0,0,0,274.6,0h-3.084V3.648h5.672Z" transform="translate(-264.647)"/>
          <path id="Path_14099" data-name="Path 14099" d="M49.5,0H46.383a.832.832,0,0,0-.719.415L43.8,3.648h5.7Z" transform="translate(-43.492)"/>
          <path id="Path_14100" data-name="Path 14100" d="M33.057,156.648v9.22a1.018,1.018,0,0,0,1.017,1.016H44.885a1.018,1.018,0,0,0,1.017-1.016v-9.22Zm8.384,3.877L39.2,162.761a.432.432,0,0,1-.611,0l-1.048-1.048a.432.432,0,0,1,.612-.611l.742.742,1.93-1.93a.432.432,0,0,1,.611.611Z" transform="translate(-33.057 -152.135)"/>
        </g>
      </g>
    </g>
    <g id="sent-2" data-name="sent" transform="translate(55.943 404.506)">
      <g id="Group_2702-2" data-name="Group 2702" transform="translate(33.057)">
        <g id="Group_2701-2" data-name="Group 2701">
          <path id="Path_14098-2" data-name="Path 14098" d="M275.318.414A.832.832,0,0,0,274.6,0h-3.084V3.648h5.672Z" transform="translate(-264.647)" fill="#fc6143"/>
          <path id="Path_14099-2" data-name="Path 14099" d="M49.5,0H46.383a.832.832,0,0,0-.719.415L43.8,3.648h5.7Z" transform="translate(-43.492)" fill="#fc6143"/>
          <path id="Path_14100-2" data-name="Path 14100" d="M33.057,156.648v9.22a1.018,1.018,0,0,0,1.017,1.016H44.885a1.018,1.018,0,0,0,1.017-1.016v-9.22Zm8.384,3.877L39.2,162.761a.432.432,0,0,1-.611,0l-1.048-1.048a.432.432,0,0,1,.612-.611l.742.742,1.93-1.93a.432.432,0,0,1,.611.611Z" transform="translate(-33.057 -152.135)" fill="#fc6143"/>
        </g>
      </g>
    </g>
    <path id="Union_1" data-name="Union 1" d="M13.125,14H4.375a.875.875,0,0,1-.875-.875v-1.75a.875.875,0,1,1,1.75,0v.875h7V1.75h-7v.875a.875.875,0,1,1-1.75,0V.875A.875.875,0,0,1,4.375,0h8.75A.875.875,0,0,1,14,.875v12.25a.875.875,0,0,1-.875.875ZM6.381,10.244a.875.875,0,0,1,0-1.237L7.513,7.875H.875a.875.875,0,1,1,0-1.75H7.513L6.381,4.994A.875.875,0,0,1,7.619,3.756l2.625,2.625a.875.875,0,0,1,0,1.237L7.619,10.244a.875.875,0,0,1-1.237,0Z" transform="translate(26 458)"/>
    <path id="Union_4" data-name="Union 4" d="M13.125,14H4.375a.875.875,0,0,1-.875-.875v-1.75a.875.875,0,1,1,1.75,0v.875h7V1.75h-7v.875a.875.875,0,1,1-1.75,0V.875A.875.875,0,0,1,4.375,0h8.75A.875.875,0,0,1,14,.875v12.25a.875.875,0,0,1-.875.875ZM6.381,10.244a.875.875,0,0,1,0-1.237L7.513,7.875H.875a.875.875,0,1,1,0-1.75H7.513L6.381,4.994A.875.875,0,0,1,7.619,3.756l2.625,2.625a.875.875,0,0,1,0,1.237L7.619,10.244a.875.875,0,0,1-1.237,0Z" transform="translate(88 458)" fill="#fc6143"/>
    <path id="Union_2" data-name="Union 2" d="M15.172,14H6.9a.805.805,0,0,1-.585-.256.9.9,0,0,1-.242-.619v-1.75a.829.829,0,1,1,1.655,0v.875h6.621V1.75H7.724v.875a.829.829,0,1,1-1.655,0V.875A.9.9,0,0,1,6.311.256.805.805,0,0,1,6.9,0h8.276a.8.8,0,0,1,.585.256A.9.9,0,0,1,16,.875v12.25a.9.9,0,0,1-.242.619.8.8,0,0,1-.585.256ZM2.725,10.244.242,7.619a.911.911,0,0,1,0-1.237L2.725,3.756a.8.8,0,0,1,1.17,0,.911.911,0,0,1,0,1.237L2.825,6.125H9.1a.876.876,0,0,1,0,1.75H2.825L3.9,9.007a.911.911,0,0,1,0,1.237.8.8,0,0,1-1.17,0Z" transform="translate(25 515)"/>
    <path id="Union_5" data-name="Union 5" d="M15.172,14H6.9a.805.805,0,0,1-.585-.256.9.9,0,0,1-.242-.619v-1.75a.829.829,0,1,1,1.655,0v.875h6.621V1.75H7.724v.875a.829.829,0,1,1-1.655,0V.875A.9.9,0,0,1,6.311.256.805.805,0,0,1,6.9,0h8.276a.8.8,0,0,1,.585.256A.9.9,0,0,1,16,.875v12.25a.9.9,0,0,1-.242.619.8.8,0,0,1-.585.256ZM2.725,10.244.242,7.619a.911.911,0,0,1,0-1.237L2.725,3.756a.8.8,0,0,1,1.17,0,.911.911,0,0,1,0,1.237L2.825,6.125H9.1a.876.876,0,0,1,0,1.75H2.825L3.9,9.007a.911.911,0,0,1,0,1.237.8.8,0,0,1-1.17,0Z" transform="translate(87 515)" fill="#fc6143"/>
  </g>
</svg>
