<svg xmlns="http://www.w3.org/2000/svg" xmlns:xlink="http://www.w3.org/1999/xlink" width="15" height="16" viewBox="0 0 15 16">
  <defs>
    <clipPath id="clip-path">
      <rect id="Rectangle_88" data-name="Rectangle 88" width="15" height="16" transform="translate(0 0.073)" fill="#888"/>
    </clipPath>
  </defs>
  <g id="Group_3" data-name="Group 3" transform="translate(0 -0.073)">
    <g id="Group_42" data-name="Group 42" clip-path="url(#clip-path)">
      <path id="Path_321" data-name="Path 321" d="M4.688,4.688a.672.672,0,0,0,.67-.67v-.67a2.009,2.009,0,0,1,4.018,0v.67a.67.67,0,1,0,1.339,0v-.67a3.349,3.349,0,1,0-6.7,0v.67a.672.672,0,0,0,.67.67m2.679,5.358A3.35,3.35,0,0,1,4.018,6.7a.67.67,0,1,1,1.339,0,2.009,2.009,0,0,0,4.018,0,.67.67,0,1,1,1.339,0,3.35,3.35,0,0,1-3.349,3.349m7.367,1.942-.67-6.63a2.006,2.006,0,0,0-2.009-2.009H2.679A2,2,0,0,0,.67,5.291L0,12.055a4.021,4.021,0,0,0,4.018,4.018h6.7a4.033,4.033,0,0,0,4.018-4.052Z" fill="#888"/>
    </g>
  </g>
</svg>
