<svg xmlns="http://www.w3.org/2000/svg" width="42.177" height="37.959" viewBox="0 0 42.177 37.959">
  <g id="ramen" transform="translate(-16 -40)">
    <g id="Group_2944" data-name="Group 2944" transform="translate(17.406 51.247)">
      <path id="Path_15399" data-name="Path 15399" d="M36.218,168H34.812A2.812,2.812,0,0,0,32,170.812v4.218h7.029v-4.218A2.812,2.812,0,0,0,36.218,168Z" transform="translate(-32 -168)" fill="#be5000"/>
    </g>
    <g id="Group_2945" data-name="Group 2945" transform="translate(18.812 52.653)">
      <path id="Path_15400" data-name="Path 15400" d="M50.812,184H49.406A1.406,1.406,0,0,0,48,185.406v4.218h4.218v-4.218A1.406,1.406,0,0,0,50.812,184Z" transform="translate(-48 -184)" fill="#dc6e1e"/>
    </g>
    <g id="Group_2946" data-name="Group 2946" transform="translate(25.841 54.059)">
      <path id="Path_15401" data-name="Path 15401" d="M128.7,200h2.812a.7.7,0,0,1,.7.7v3.515H128V200.7A.7.7,0,0,1,128.7,200Z" transform="translate(-128 -200)" fill="#4b8c41"/>
    </g>
    <g id="Group_2947" data-name="Group 2947" transform="translate(28.653 52.653)">
      <path id="Path_15402" data-name="Path 15402" d="M160.7,184h2.812a.7.7,0,0,1,.7.7v4.921H160V184.7A.7.7,0,0,1,160.7,184Z" transform="translate(-160 -184)" fill="#91b945"/>
    </g>
    <g id="Group_2948" data-name="Group 2948" transform="translate(48.047 53.5)">
      <ellipse id="Ellipse_289" data-name="Ellipse 289" cx="4" cy="4.5" rx="4" ry="4.5" transform="translate(0.041 0.48)" fill="#d7e6e6"/>
    </g>
    <g id="Group_2949" data-name="Group 2949" transform="translate(18.664 53.707)">
      <path id="Path_15403" data-name="Path 15403" d="M54.549,200.569c0-.455.614-1,.48-1.412s-.961-.506-1.218-.86-.085-1.164-.442-1.424-1.065.157-1.491.019-.74-.891-1.2-.891-.785.758-1.2.891-1.137-.276-1.491-.019-.182,1.067-.442,1.424-1.08.435-1.218.86c-.133.411.48.957.48,1.412s-.614,1-.48,1.412.961.506,1.218.86.085,1.164.442,1.424,1.065-.157,1.491-.019.74.891,1.2.891.785-.758,1.2-.891,1.137.276,1.491.019.182-1.067.442-1.424,1.08-.435,1.218-.86C55.163,201.571,54.549,201.024,54.549,200.569Z" transform="translate(-46.317 -196)" fill="#d7e6e6"/>
    </g>
    <g id="Group_2950" data-name="Group 2950" transform="translate(19.866 55.113)">
      <path id="Path_15404" data-name="Path 15404" d="M63.163,218.326a3.163,3.163,0,1,1,3.163-3.163A3.167,3.167,0,0,1,63.163,218.326Zm0-5.624a2.46,2.46,0,1,0,2.46,2.46A2.463,2.463,0,0,0,63.163,212.7Z" transform="translate(-60 -212)" fill="#ff8773"/>
    </g>
    <g id="Group_2951" data-name="Group 2951" transform="translate(21.506 56.753)">
      <path id="Path_15405" data-name="Path 15405" d="M80.19,233.713a1.523,1.523,0,1,1,1.523-1.523A1.525,1.525,0,0,1,80.19,233.713Zm0-2.343a.82.82,0,1,0,.82.82A.821.821,0,0,0,80.19,231.37Z" transform="translate(-78.667 -230.667)" fill="#ff8773"/>
    </g>
    <g id="Group_2952" data-name="Group 2952" transform="translate(50.787 56.24)">
      <circle id="Ellipse_290" data-name="Ellipse 290" cx="2" cy="2" r="2" transform="translate(0.301 -0.26)" fill="#fabe19"/>
    </g>
    <g id="Group_2953" data-name="Group 2953" transform="translate(42.568 53.5)">
      <circle id="Ellipse_291" data-name="Ellipse 291" cx="4.5" cy="4.5" r="4.5" transform="translate(-0.48 0.48)" fill="#d7e6e6"/>
    </g>
    <g id="Group_2954" data-name="Group 2954" transform="translate(43.938 56.24)">
      <circle id="Ellipse_292" data-name="Ellipse 292" cx="2" cy="2" r="2" transform="translate(0.15 -0.26)" fill="#fabe19"/>
    </g>
    <g id="Group_2955" data-name="Group 2955" transform="translate(28.653 40)">
      <path id="Path_15406" data-name="Path 15406" d="M160.7,41.406h28.821V40H160.7a.7.7,0,0,0,0,1.406Z" transform="translate(-160 -40)" fill="#d7322d"/>
    </g>
    <g id="Group_2956" data-name="Group 2956" transform="translate(28.653 42.812)">
      <path id="Path_15407" data-name="Path 15407" d="M160.7,73.406h28.821V72H160.7a.7.7,0,0,0,0,1.406Z" transform="translate(-160 -72)" fill="#d7322d"/>
    </g>
    <g id="Group_2957" data-name="Group 2957" transform="translate(28.653 40)">
      <path id="Path_15408" data-name="Path 15408" d="M160,40.7h29.524V40H160.7A.7.7,0,0,0,160,40.7Z" transform="translate(-160 -40)" fill="#f04b37"/>
    </g>
    <g id="Group_2958" data-name="Group 2958" transform="translate(28.653 42.812)">
      <path id="Path_15409" data-name="Path 15409" d="M160,72.7h29.524V72H160.7A.7.7,0,0,0,160,72.7Z" transform="translate(-160 -72)" fill="#f04b37"/>
    </g>
    <g id="Group_2965" data-name="Group 2965" transform="translate(29.707 41.054)">
      <g id="Group_2959" data-name="Group 2959" transform="translate(2.109 0)">
        <path id="Path_15410" data-name="Path 15410" d="M197.054,70.276A1.054,1.054,0,0,1,196,69.222a3.222,3.222,0,0,1,.962-2.309,1.185,1.185,0,0,0,0-1.85,3.252,3.252,0,0,1,0-4.617,1.185,1.185,0,0,0,0-1.85,3.252,3.252,0,0,1,0-4.617,1.214,1.214,0,0,0,.444-.925,1.054,1.054,0,0,1,2.109,0,3.221,3.221,0,0,1-.962,2.308,1.185,1.185,0,0,0,0,1.85,3.252,3.252,0,0,1,0,4.617,1.185,1.185,0,0,0,0,1.85,3.252,3.252,0,0,1,0,4.617,1.215,1.215,0,0,0-.444.925,1.054,1.054,0,0,1-1.054,1.054Z" transform="translate(-196 -52)" fill="#f5871e"/>
      </g>
      <g id="Group_2960" data-name="Group 2960" transform="translate(0 0)">
        <path id="Path_15411" data-name="Path 15411" d="M173.054,70.276A1.054,1.054,0,0,1,172,69.222a3.222,3.222,0,0,1,.962-2.309,1.185,1.185,0,0,0,0-1.85,3.252,3.252,0,0,1,0-4.617,1.185,1.185,0,0,0,0-1.85,3.252,3.252,0,0,1,0-4.617,1.214,1.214,0,0,0,.444-.925,1.054,1.054,0,0,1,2.109,0,3.221,3.221,0,0,1-.962,2.308,1.185,1.185,0,0,0,0,1.85,3.252,3.252,0,0,1,0,4.617,1.185,1.185,0,0,0,0,1.85,3.252,3.252,0,0,1,0,4.617,1.215,1.215,0,0,0-.444.925,1.054,1.054,0,0,1-1.054,1.054Z" transform="translate(-172 -52)" fill="#fabe19"/>
      </g>
      <g id="Group_2961" data-name="Group 2961" transform="translate(6.326 0)">
        <path id="Path_15412" data-name="Path 15412" d="M245.054,70.276A1.054,1.054,0,0,1,244,69.222a3.222,3.222,0,0,1,.962-2.309,1.185,1.185,0,0,0,0-1.85,3.252,3.252,0,0,1,0-4.617,1.185,1.185,0,0,0,0-1.85,3.252,3.252,0,0,1,0-4.617,1.214,1.214,0,0,0,.444-.925,1.054,1.054,0,0,1,2.109,0,3.221,3.221,0,0,1-.962,2.308,1.185,1.185,0,0,0,0,1.85,3.252,3.252,0,0,1,0,4.617,1.185,1.185,0,0,0,0,1.85,3.252,3.252,0,0,1,0,4.617,1.215,1.215,0,0,0-.444.925,1.054,1.054,0,0,1-1.054,1.054Z" transform="translate(-244 -52)" fill="#f5871e"/>
      </g>
      <g id="Group_2962" data-name="Group 2962" transform="translate(4.218 0)">
        <path id="Path_15413" data-name="Path 15413" d="M221.054,70.276A1.054,1.054,0,0,1,220,69.222a3.222,3.222,0,0,1,.962-2.309,1.185,1.185,0,0,0,0-1.85,3.252,3.252,0,0,1,0-4.617,1.185,1.185,0,0,0,0-1.85,3.252,3.252,0,0,1,0-4.617,1.214,1.214,0,0,0,.444-.925,1.054,1.054,0,0,1,2.109,0,3.221,3.221,0,0,1-.962,2.308,1.185,1.185,0,0,0,0,1.85,3.252,3.252,0,0,1,0,4.617,1.185,1.185,0,0,0,0,1.85,3.252,3.252,0,0,1,0,4.617,1.215,1.215,0,0,0-.444.925,1.054,1.054,0,0,1-1.054,1.054Z" transform="translate(-220 -52)" fill="#fabe19"/>
      </g>
      <g id="Group_2963" data-name="Group 2963" transform="translate(10.544 0)">
        <path id="Path_15414" data-name="Path 15414" d="M293.054,70.276A1.054,1.054,0,0,1,292,69.222a3.222,3.222,0,0,1,.962-2.309,1.185,1.185,0,0,0,0-1.85,3.252,3.252,0,0,1,0-4.617,1.185,1.185,0,0,0,0-1.85,3.252,3.252,0,0,1,0-4.617,1.214,1.214,0,0,0,.444-.925,1.054,1.054,0,0,1,2.109,0,3.22,3.22,0,0,1-.962,2.308,1.185,1.185,0,0,0,0,1.85,3.252,3.252,0,0,1,0,4.617,1.185,1.185,0,0,0,0,1.85,3.252,3.252,0,0,1,0,4.617,1.215,1.215,0,0,0-.444.925,1.054,1.054,0,0,1-1.054,1.054Z" transform="translate(-292 -52)" fill="#f5871e"/>
      </g>
      <g id="Group_2964" data-name="Group 2964" transform="translate(8.435 0)">
        <path id="Path_15415" data-name="Path 15415" d="M269.054,70.276A1.054,1.054,0,0,1,268,69.222a3.222,3.222,0,0,1,.962-2.309,1.185,1.185,0,0,0,0-1.85,3.252,3.252,0,0,1,0-4.617,1.185,1.185,0,0,0,0-1.85,3.252,3.252,0,0,1,0-4.617,1.214,1.214,0,0,0,.444-.925,1.054,1.054,0,0,1,2.109,0,3.22,3.22,0,0,1-.962,2.308,1.185,1.185,0,0,0,0,1.85,3.252,3.252,0,0,1,0,4.617,1.185,1.185,0,0,0,0,1.85,3.252,3.252,0,0,1,0,4.617,1.215,1.215,0,0,0-.444.925,1.054,1.054,0,0,1-1.054,1.054Z" transform="translate(-268 -52)" fill="#fabe19"/>
      </g>
    </g>
    <g id="Group_2966" data-name="Group 2966" transform="translate(16 58.277)">
      <path id="Path_15416" data-name="Path 15416" d="M44.118,264.871H30.059A14.059,14.059,0,0,1,16,250.812v-1.406A1.406,1.406,0,0,1,17.406,248H56.771a1.406,1.406,0,0,1,1.406,1.406v1.406A14.059,14.059,0,0,1,44.118,264.871Z" transform="translate(-16 -248)" fill="#f04b37"/>
    </g>
    <g id="Group_2967" data-name="Group 2967" transform="translate(17.406 59.682)">
      <path id="Path_15417" data-name="Path 15417" d="M44.653,278.059A12.667,12.667,0,0,1,32,265.406v-.7a.7.7,0,1,1,1.406,0v.7a11.26,11.26,0,0,0,11.247,11.247.7.7,0,1,1,0,1.406Z" transform="translate(-32 -264)" fill="#ff6955"/>
    </g>
    <g id="Group_2968" data-name="Group 2968" transform="translate(30.059 58.277)">
      <path id="Path_15418" data-name="Path 15418" d="M202.712,248H188.653a1.406,1.406,0,0,1,1.406,1.406v1.406A14.059,14.059,0,0,1,176,264.871h14.059a14.059,14.059,0,0,0,14.059-14.059v-1.406A1.406,1.406,0,0,0,202.712,248Z" transform="translate(-176 -248)" fill="#d7322d"/>
    </g>
    <g id="Group_2969" data-name="Group 2969" transform="translate(30.059 75.147)">
      <path id="Path_15419" data-name="Path 15419" d="M188.653,442.812H177.406A1.406,1.406,0,0,1,176,441.406V440h14.059v1.406A1.406,1.406,0,0,1,188.653,442.812Z" transform="translate(-176 -440)" fill="#d7322d"/>
    </g>
  </g>
</svg>
