<svg xmlns="http://www.w3.org/2000/svg" width="140" height="140" viewBox="0 0 140 140">
  <g id="Group_3005" data-name="Group 3005" transform="translate(6788 -1791)">
    <rect id="Rectangle_1116" data-name="Rectangle 1116" width="140" height="140" rx="8" transform="translate(-6788 1791)" fill="#fff"/>
    <g id="qr-code" transform="translate(-6769 1810)">
      <g id="Group_2743" data-name="Group 2743">
        <g id="Group_2742" data-name="Group 2742">
          <path id="Path_14105" data-name="Path 14105" d="M0,0V34H34V0ZM26,26H8V8H26Z"/>
        </g>
      </g>
      <g id="Group_2745" data-name="Group 2745" transform="translate(12.799 12.799)">
        <g id="Group_2744" data-name="Group 2744" transform="translate(0 0)">
          <rect id="Rectangle_1101" data-name="Rectangle 1101" width="7" height="7" transform="translate(0.397 0.397)"/>
        </g>
      </g>
      <g id="Group_2747" data-name="Group 2747" transform="translate(68.395)">
        <g id="Group_2746" data-name="Group 2746">
          <path id="Path_14106" data-name="Path 14106" d="M342,0V34h34V0Zm26,26H350V8h18Z" transform="translate(-342)"/>
        </g>
      </g>
      <g id="Group_2749" data-name="Group 2749" transform="translate(81.915 12.799)">
        <g id="Group_2748" data-name="Group 2748" transform="translate(0 0)">
          <rect id="Rectangle_1102" data-name="Rectangle 1102" width="7" height="7" transform="translate(0.282 0.397)"/>
        </g>
      </g>
      <g id="Group_2751" data-name="Group 2751" transform="translate(0 68.395)">
        <g id="Group_2750" data-name="Group 2750">
          <path id="Path_14107" data-name="Path 14107" d="M0,342v34H34V342Zm26,26H8V350H26Z" transform="translate(0 -342)"/>
        </g>
      </g>
      <g id="Group_2753" data-name="Group 2753" transform="translate(12.799 81.915)">
        <g id="Group_2752" data-name="Group 2752" transform="translate(0 0)">
          <rect id="Rectangle_1103" data-name="Rectangle 1103" width="7" height="7" transform="translate(0.397 0.282)"/>
        </g>
      </g>
      <g id="Group_2755" data-name="Group 2755" transform="translate(7.68 39.677)">
        <g id="Group_2754" data-name="Group 2754" transform="translate(0 0)">
          <rect id="Rectangle_1104" data-name="Rectangle 1104" width="8" height="8" transform="translate(-0.483 -0.481)"/>
        </g>
      </g>
      <g id="Group_2757" data-name="Group 2757" transform="translate(15.999 47.397)">
        <g id="Group_2756" data-name="Group 2756">
          <path id="Path_14108" data-name="Path 14108" d="M88,245v-8H80v8h7.8v8h8v-8Z" transform="translate(-80 -237)"/>
        </g>
      </g>
      <g id="Group_2759" data-name="Group 2759" transform="translate(56.316 15.359)">
        <g id="Group_2758" data-name="Group 2758" transform="translate(0)">
          <rect id="Rectangle_1105" data-name="Rectangle 1105" width="8" height="8" transform="translate(-0.12 -0.163)"/>
        </g>
      </g>
      <g id="Group_2761" data-name="Group 2761" transform="translate(39.677 7.68)">
        <g id="Group_2760" data-name="Group 2760" transform="translate(0 0)">
          <rect id="Rectangle_1106" data-name="Rectangle 1106" width="8" height="16" transform="translate(-0.481 -0.483)"/>
        </g>
      </g>
      <g id="Group_2763" data-name="Group 2763" transform="translate(47.357 0)">
        <g id="Group_2762" data-name="Group 2762" transform="translate(0)">
          <rect id="Rectangle_1107" data-name="Rectangle 1107" width="9" height="7" transform="translate(-0.161 0.196)"/>
        </g>
      </g>
      <g id="Group_2765" data-name="Group 2765" transform="translate(39.997 23.398)">
        <g id="Group_2764" data-name="Group 2764">
          <path id="Path_14109" data-name="Path 14109" d="M208,117v8h-8v8h16V117Z" transform="translate(-200 -117)"/>
        </g>
      </g>
      <g id="Group_2767" data-name="Group 2767" transform="translate(39.997 47.397)">
        <g id="Group_2766" data-name="Group 2766">
          <path id="Path_14110" data-name="Path 14110" d="M216,260.6v-7.8h-8V237h-8v16h8v7.8h8v7.8h16v-8Z" transform="translate(-200 -237)"/>
        </g>
      </g>
      <g id="Group_2769" data-name="Group 2769" transform="translate(56.316 39.677)">
        <g id="Group_2768" data-name="Group 2768" transform="translate(0 0)">
          <rect id="Rectangle_1108" data-name="Rectangle 1108" width="8" height="16" transform="translate(-0.12 -0.481)"/>
        </g>
      </g>
      <g id="Group_2771" data-name="Group 2771" transform="translate(71.995 39.397)">
        <g id="Group_2770" data-name="Group 2770">
          <path id="Path_14111" data-name="Path 14111" d="M382.4,204.8V197H367.8v8H360v8h8v7.8h22.4v-16Zm0,8H368V205h14.4Z" transform="translate(-360 -197)"/>
        </g>
      </g>
      <g id="Group_2773" data-name="Group 2773" transform="translate(94.714 70.395)">
        <g id="Group_2772" data-name="Group 2772" transform="translate(0 0)">
          <rect id="Rectangle_1109" data-name="Rectangle 1109" width="7" height="17" transform="translate(0.483 -0.199)"/>
        </g>
      </g>
      <g id="Group_2775" data-name="Group 2775" transform="translate(63.996 55.036)">
        <g id="Group_2774" data-name="Group 2774" transform="translate(0 0)">
          <rect id="Rectangle_1110" data-name="Rectangle 1110" width="7" height="9" transform="translate(0.201 0.16)"/>
        </g>
      </g>
      <g id="Group_2777" data-name="Group 2777" transform="translate(71.675 79.355)">
        <g id="Group_2776" data-name="Group 2776" transform="translate(0)">
          <rect id="Rectangle_1111" data-name="Rectangle 1111" width="8" height="8" transform="translate(-0.479 -0.158)"/>
        </g>
      </g>
      <g id="Group_2779" data-name="Group 2779" transform="translate(79.355 70.395)">
        <g id="Group_2778" data-name="Group 2778" transform="translate(0 0)">
          <rect id="Rectangle_1112" data-name="Rectangle 1112" width="9" height="9" transform="translate(-0.158 -0.199)"/>
        </g>
      </g>
      <g id="Group_2781" data-name="Group 2781" transform="translate(79.995 86.994)">
        <g id="Group_2780" data-name="Group 2780">
          <path id="Path_14112" data-name="Path 14112" d="M400,435v15.4h8V443h6.4v-8Z" transform="translate(-400 -435)"/>
        </g>
      </g>
      <g id="Group_2783" data-name="Group 2783" transform="translate(39.677 71.675)">
        <g id="Group_2782" data-name="Group 2782" transform="translate(0 0)">
          <rect id="Rectangle_1113" data-name="Rectangle 1113" width="8" height="16" transform="translate(-0.481 -0.479)"/>
        </g>
      </g>
      <g id="Group_2785" data-name="Group 2785" transform="translate(47.997 86.394)">
        <g id="Group_2784" data-name="Group 2784">
          <path id="Path_14113" data-name="Path 14113" d="M256,440v-8H240v16h8v-8h7.8v8h8v-8Z" transform="translate(-240 -432)"/>
        </g>
      </g>
      <g id="Group_2787" data-name="Group 2787" transform="translate(24.319 39.677)">
        <g id="Group_2786" data-name="Group 2786" transform="translate(0 0)">
          <rect id="Rectangle_1114" data-name="Rectangle 1114" width="15" height="8" transform="translate(-0.122 -0.481)"/>
        </g>
      </g>
      <g id="Group_2789" data-name="Group 2789" transform="translate(0 47.357)">
        <g id="Group_2788" data-name="Group 2788" transform="translate(0 0)">
          <rect id="Rectangle_1115" data-name="Rectangle 1115" width="7" height="17" transform="translate(0.196 -0.16)"/>
        </g>
      </g>
    </g>
  </g>
</svg>
