<svg xmlns="http://www.w3.org/2000/svg" width="74.616" height="88.89" viewBox="0 0 74.616 88.89">
  <g id="Group_3005" data-name="Group 3005" transform="translate(-56.692 -743.555)">
    <g id="reserved" transform="translate(15.582 743.555)">
      <g id="Group_2991" data-name="Group 2991" transform="translate(41.11)">
        <path id="Path_15446" data-name="Path 15446" d="M247.063,13.424l8.893,23.862-22.6,4.841" transform="translate(-199.979 -11.093)" fill="#f9917d"/>
        <path id="Path_15447" data-name="Path 15447" d="M167.605,0H148.767a1.8,1.8,0,0,0-1.715,1.261l-7.773,24.931L150.553,30l11.327-3.8,7.44-23.862A1.8,1.8,0,0,0,167.605,0Z" transform="translate(-122.235)" fill="#fcb3a5"/>
        <path id="Path_15448" data-name="Path 15448" d="M234.045,234h7.624v44.575h-7.624Z" transform="translate(-200.549 -193.377)" fill="#dedede"/>
        <path id="Path_15449" data-name="Path 15449" d="M234.045,234h7.624v7.624h-7.624Z" transform="translate(-200.549 -193.377)" fill="#c6c3c2"/>
        <path id="Path_15450" data-name="Path 15450" d="M234.045,234h3.812v44.575h-3.812Z" transform="translate(-200.549 -193.377)" fill="#c6c3c2"/>
        <path id="Path_15451" data-name="Path 15451" d="M166.579,187.183v3.944a3.435,3.435,0,0,1-3.434,3.434h-40.7a3.435,3.435,0,0,1-3.434-3.434v-3.944L142.8,181.81Z" transform="translate(-105.489 -150.245)" fill="#dedede"/>
        <path id="Path_15452" data-name="Path 15452" d="M166.579,187.183v3.688H119.014v-3.688L142.8,181.81Z" transform="translate(-105.489 -150.245)" fill="#c6c3c2"/>
        <path id="Path_15453" data-name="Path 15453" d="M129.815,198.282a3.433,3.433,0,0,1-3.432-3.434v-8.535l-7.371,4.591v3.944a3.434,3.434,0,0,0,3.434,3.434h7.369Z" transform="translate(-105.487 -153.966)" fill="#c6c3c2"/>
        <path id="Path_15454" data-name="Path 15454" d="M122.452,469.5h40.7a3.433,3.433,0,0,1,3.433,3.433v2.507a1.438,1.438,0,0,1-1.438,1.438H120.457a1.438,1.438,0,0,1-1.438-1.438v-2.507A3.433,3.433,0,0,1,122.452,469.5Z" transform="translate(-105.493 -387.991)" fill="#dedede"/>
        <path id="Path_15455" data-name="Path 15455" d="M129.822,469.5a3.433,3.433,0,0,0-3.432,3.434v3.944h-5.933a1.438,1.438,0,0,1-1.438-1.438v-2.506a3.434,3.434,0,0,1,3.434-3.434Z" transform="translate(-105.493 -387.991)" fill="#c6c3c2"/>
        <path id="Path_15456" data-name="Path 15456" d="M112.557,161.611H44.279a3.169,3.169,0,0,1-3.169-3.169v-4.406a3.169,3.169,0,0,1,3.169-3.169h68.277a3.169,3.169,0,0,1,3.169,3.169v4.406A3.169,3.169,0,0,1,112.557,161.611Z" transform="translate(-41.11 -124.674)" fill="#dedede"/>
        <path id="Path_15457" data-name="Path 15457" d="M55.051,161.611H44.28a3.168,3.168,0,0,1-3.169-3.168v-4.407a3.17,3.17,0,0,1,3.169-3.169H55.051a3.17,3.17,0,0,0-3.169,3.169v4.407A3.168,3.168,0,0,0,55.051,161.611Z" transform="translate(-41.111 -124.674)" fill="#c6c3c2"/>
      </g>
      <g id="Group_2992" data-name="Group 2992" transform="translate(66.144 7.042)">
        <path id="Path_15458" data-name="Path 15458" d="M189.58,54.277a1.342,1.342,0,0,1-1.235-.818l-2.935-6.923a1.342,1.342,0,0,1,2.47-1.047l2.129,5.021,8.889-9.525a1.341,1.341,0,0,1,1.961,1.83l-10.3,11.035A1.341,1.341,0,0,1,189.58,54.277Z" transform="translate(-185.303 -40.559)" fill="#fff"/>
      </g>
    </g>
  </g>
</svg>
