<svg xmlns="http://www.w3.org/2000/svg" width="17.238" height="17.238" viewBox="0 0 17.238 17.238">
  <g id="hotel" transform="translate(8 47)">
    <path id="Path_15397" data-name="Path 15397" d="M14,23h2.463v4.31H14Z" transform="translate(-14.612 -57.071)" fill="#707070"/>
    <path id="Path_15398" data-name="Path 15398" d="M18.623,18.007H17.391V5.694a.582.582,0,0,0-.616-.616H16.16V2.616A.582.582,0,0,0,15.544,2H5.694a.582.582,0,0,0-.616.616V5.078H4.463a.582.582,0,0,0-.616.616V18.007H2.616a.616.616,0,1,0,0,1.231H8.157V14.313a.582.582,0,0,1,.616-.616h3.694a.582.582,0,0,1,.616.616v4.925h5.541a.616.616,0,0,0,0-1.231ZM14.313,6.925a.582.582,0,0,1,.616.616V8.772a.616.616,0,1,1-1.231,0V7.541A.582.582,0,0,1,14.313,6.925ZM6.925,16.16a.582.582,0,0,1-.616.616.582.582,0,0,1-.616-.616V14.929a.582.582,0,0,1,.616-.616.582.582,0,0,1,.616.616Zm.616-3.694a.582.582,0,0,1-.616.616.582.582,0,0,1-.616-.616V11.235a.582.582,0,0,1,.616-.616.582.582,0,0,1,.616.616Zm0-3.694a.582.582,0,0,1-.616.616.582.582,0,0,1-.616-.616V7.541a.582.582,0,0,1,.616-.616.582.582,0,0,1,.616.616ZM8.157,6.31a.582.582,0,0,1-.616-.616V4.463a.616.616,0,1,1,1.231,0V5.694A.582.582,0,0,1,8.157,6.31ZM10,12.466a.616.616,0,0,1-1.231,0V11.235a.616.616,0,1,1,1.231,0Zm0-3.694a.616.616,0,0,1-1.231,0V7.541a.616.616,0,0,1,1.231,0Zm.616-2.463A.582.582,0,0,1,10,5.694V4.463a.616.616,0,0,1,1.231,0V5.694A.582.582,0,0,1,10.619,6.31Zm1.847,6.157a.616.616,0,0,1-1.231,0V11.235a.616.616,0,0,1,1.231,0Zm0-3.694a.616.616,0,1,1-1.231,0V7.541a.616.616,0,0,1,1.231,0Zm.616-2.463a.582.582,0,0,1-.616-.616V4.463a.616.616,0,1,1,1.231,0V5.694A.582.582,0,0,1,13.082,6.31Zm.616,6.157V11.235a.616.616,0,0,1,1.231,0v1.231a.616.616,0,1,1-1.231,0Zm1.847,3.694a.616.616,0,0,1-1.231,0V14.929a.616.616,0,0,1,1.231,0Z" transform="translate(-10 -49)" fill="#707070"/>
  </g>
</svg>
