<svg xmlns="http://www.w3.org/2000/svg" width="19.281" height="154.161" viewBox="0 0 19.281 154.161">
  <g id="Group_2741" data-name="Group 2741" transform="translate(-1487.269 -991.957)">
    <g id="hourglass" transform="translate(1490.269 1127.148)">
      <g id="Group_961" data-name="Group 961" transform="translate(0)">
        <path id="Path_2412" data-name="Path 2412" d="M71.213,7.514a8.136,8.136,0,0,0,3.113-6.4h1.123V0H61V1.111h1.123a8.136,8.136,0,0,0,3.113,6.4c.844.769,1.321,1.24,1.321,1.971s-.477,1.2-1.321,1.971a8.136,8.136,0,0,0-3.113,6.4H61v1.111H75.449V17.858H74.326a8.136,8.136,0,0,0-3.113-6.4c-.844-.769-1.321-1.24-1.321-1.971S70.369,8.283,71.213,7.514ZM67.669,13.65a2.81,2.81,0,0,0-.507.155l-3.4,1.409a7.583,7.583,0,0,1,2.227-2.937c.866-.789,1.684-1.535,1.684-2.792Zm2.8-1.373a7.583,7.583,0,0,1,2.227,2.937l-3.4-1.409a2.81,2.81,0,0,0-.507-.155V9.485C68.78,10.742,69.6,11.487,70.464,12.277ZM63.739,3.7a8.235,8.235,0,0,1-.5-2.593h9.978a8.234,8.234,0,0,1-.5,2.593Z" transform="translate(-61)" fill="#707070"/>
      </g>
    </g>
    <g id="Group_2740" data-name="Group 2740">
      <g id="old-typical-phone" transform="translate(1487.269 991.957)">
        <g id="Group_962" data-name="Group 962" transform="translate(0 0)">
          <path id="Path_2413" data-name="Path 2413" d="M9.779,7.442c3.249.032,5.284-.17,5.559,3.431H19.3c0-5.578-4.865-6.33-9.624-6.33S.052,5.294.052,10.872H3.983C4.287,7.2,6.557,7.41,9.779,7.442Z" transform="translate(-0.032 -4.542)" fill="#707070"/>
          <path id="Path_2414" data-name="Path 2414" d="M1.984,23.978c.965,0,1.768.058,1.946-.891a2.422,2.422,0,0,0,.038-.444H0C0,24.054.888,23.978,1.984,23.978Z" transform="translate(0 -15.854)" fill="#707070"/>
          <path id="Path_2415" data-name="Path 2415" d="M40.818,22.642h-.037a2.12,2.12,0,0,0,.042.444c.188.875.99.821,1.952.821,1.1,0,1.994.072,1.994-1.265Z" transform="translate(-25.487 -15.854)" fill="#707070"/>
          <path id="Path_2416" data-name="Path 2416" d="M15.717,18.7v-.561c0-.251-.289-.267-.646-.267h-.583c-.357,0-.646.016-.646.267V19H9.717v-.858c0-.251-.289-.267-.646-.267H8.488c-.357,0-.646.016-.646.267v1.051a41.576,41.576,0,0,0-4.127,5.637l0,3.358a.563.563,0,0,0,.563.563h15a.563.563,0,0,0,.563-.563V24.809a42.318,42.318,0,0,0-4.125-5.62Zm-6.2,6.579a.547.547,0,1,1,.547-.547A.547.547,0,0,1,9.514,25.277Zm0-1.875a.547.547,0,1,1,.547-.547A.547.547,0,0,1,9.514,23.4Zm0-1.875a.547.547,0,1,1,.547-.547A.547.547,0,0,1,9.514,21.527Zm2.25,3.75a.547.547,0,1,1,.547-.547A.547.547,0,0,1,11.764,25.277Zm0-1.875a.547.547,0,1,1,.547-.547A.547.547,0,0,1,11.764,23.4Zm0-1.875a.547.547,0,1,1,.547-.547A.547.547,0,0,1,11.764,21.527Zm2.25,3.75a.547.547,0,1,1,.547-.547A.546.546,0,0,1,14.014,25.277Zm0-1.875a.547.547,0,1,1,.547-.547A.546.546,0,0,1,14.014,23.4Zm0-1.875a.547.547,0,1,1,.547-.547A.546.546,0,0,1,14.014,21.527Z" transform="translate(-2.322 -12.872)" fill="#707070"/>
        </g>
      </g>
    </g>
    <path id="location-pin" d="M10.728,0A7.765,7.765,0,0,0,3,7.784c0,6.1,7,12.4,7.3,12.662a.646.646,0,0,0,.857,0c.3-.265,7.3-6.563,7.3-12.663A7.765,7.765,0,0,0,10.728,0Zm0,12.022a4.294,4.294,0,1,1,4.294-4.294A4.3,4.3,0,0,1,10.728,12.022Z" transform="translate(1486.269 1061.221)" fill="#707070"/>
  </g>
</svg>
