<svg xmlns="http://www.w3.org/2000/svg" width="44" height="44" viewBox="0 0 44 44">
  <g id="Group_3006" data-name="Group 3006" transform="translate(4161 -598.549)">
    <path id="Subtraction_2" data-name="Subtraction 2" d="M22,44A22,22,0,0,1,6.444,6.444,22,22,0,0,1,37.556,37.556,21.857,21.857,0,0,1,22,44ZM12.776,11.893a.615.615,0,0,0-.492.221.8.8,0,0,0-.115.7c.012.052,1.1,4.892,1.689,7.524L23.451,22l-9.593,1.66c-.591,2.632-1.678,7.472-1.689,7.524a.8.8,0,0,0,.115.7.615.615,0,0,0,.491.221.878.878,0,0,0,.357-.08L31.511,22.6a.7.7,0,0,0,0-1.207l-18.38-9.424A.87.87,0,0,0,12.776,11.893Z" transform="translate(-4161 598.549)" fill="#fc6143"/>
  </g>
</svg>
