<svg xmlns="http://www.w3.org/2000/svg" width="36.075" height="92.075" viewBox="0 0 36.075 92.075">
  <g id="Group_3005" data-name="Group 3005" transform="translate(14869.307 -383.962)">
    <g id="next_3_" data-name="next (3)" transform="translate(-14868.807 384.462)">
      <path id="Path_885" data-name="Path 885" d="M35.075,17.538c0-3.361-.146-6.43-.731-8.184a12.165,12.165,0,0,0-3.069-5.7C29.083,1.608,27.183,1.023,24.26.438A48.123,48.123,0,0,0,18.268,0H16.953a50.286,50.286,0,0,0-6.138.438C7.892,1.023,5.846,1.754,3.8,3.654a11,11,0,0,0-3.069,5.7C.146,11.107,0,14.176,0,17.538s.146,6.43.731,8.184a12.165,12.165,0,0,0,3.069,5.7c2.192,2.046,4.092,2.631,7.015,3.215a39.438,39.438,0,0,0,6.723.438,41.924,41.924,0,0,0,6.869-.438c2.777-.585,4.823-1.169,7.015-3.215a10.936,10.936,0,0,0,3.069-5.7,39.932,39.932,0,0,0,.585-8.184Z" fill="#fff" stroke="#707070" stroke-width="1"/>
      <path id="Path_886" data-name="Path 886" d="M9.138,6.838a1.413,1.413,0,0,0,0,2.046l5.7,5.7-5.7,5.7a1.447,1.447,0,0,0,2.046,2.046l6.723-6.723a1.413,1.413,0,0,0,0-2.046L11.185,6.838a1.413,1.413,0,0,0-2.046,0Z" transform="translate(4.015 2.953)" fill="#fc6143"/>
    </g>
    <g id="next_3_2" data-name="next (3)" transform="translate(-14868.807 440.462)">
      <path id="Path_885-2" data-name="Path 885" d="M0,17.538c0-3.361.146-6.43.731-8.184A12.165,12.165,0,0,1,3.8,3.654C5.992,1.608,7.892,1.023,10.815.438A48.122,48.122,0,0,1,16.807,0h1.315A50.286,50.286,0,0,1,24.26.438c2.923.585,4.969,1.315,7.015,3.215a11,11,0,0,1,3.069,5.7c.585,1.754.731,4.823.731,8.184s-.146,6.43-.731,8.184a12.165,12.165,0,0,1-3.069,5.7c-2.192,2.046-4.092,2.631-7.015,3.215a39.438,39.438,0,0,1-6.723.438,41.924,41.924,0,0,1-6.869-.438c-2.777-.585-4.823-1.169-7.015-3.215a10.936,10.936,0,0,1-3.069-5.7A39.932,39.932,0,0,1,0,17.538Z" transform="translate(0 0)" fill="#fff" stroke="#707070" stroke-width="1"/>
      <path id="Path_886-2" data-name="Path 886" d="M17.907,6.838a1.413,1.413,0,0,1,0,2.046l-5.7,5.7,5.7,5.7a1.447,1.447,0,0,1-2.046,2.046L9.138,15.607a1.413,1.413,0,0,1,0-2.046l6.723-6.723a1.413,1.413,0,0,1,2.046,0Z" transform="translate(4.015 2.953)" fill="#fc6143"/>
    </g>
  </g>
</svg>
