<svg xmlns="http://www.w3.org/2000/svg" width="64.175" height="44.497" viewBox="0 0 64.175 44.497">
  <g id="truck" transform="translate(0 -78.5)">
    <path id="Path_15420" data-name="Path 15420" d="M356.18,153.878v12.44H336V141.5h7.8A12.377,12.377,0,0,1,356.18,153.878Z" transform="translate(-293.885 -55.103)" fill="#db4646"/>
    <path id="Path_15421" data-name="Path 15421" d="M356.18,153.878v8.3H336V141.5h7.8A12.377,12.377,0,0,1,356.18,153.878Z" transform="translate(-293.885 -55.103)" fill="#ee5351"/>
    <path id="Path_15422" data-name="Path 15422" d="M55.235,81.383V111.34H15V81.383A2.883,2.883,0,0,1,17.883,78.5H52.352A2.883,2.883,0,0,1,55.235,81.383Z" transform="translate(-13.12)" fill="#e2b354"/>
    <path id="Path_15423" data-name="Path 15423" d="M55.235,81.383v25.7H15v-25.7A2.883,2.883,0,0,1,17.883,78.5H52.352A2.883,2.883,0,0,1,55.235,81.383Z" transform="translate(-13.12)" fill="#ffd064"/>
    <path id="Path_15424" data-name="Path 15424" d="M64.175,335.947a3.445,3.445,0,0,1-3.447,3.447H3.447A3.445,3.445,0,0,1,0,336c0-.019,0-.039,0-.058A3.445,3.445,0,0,1,3.447,332.5H60.728a3.411,3.411,0,0,1,.939.13A3.446,3.446,0,0,1,64.175,335.947Z" transform="translate(0 -222.163)" fill="#bfbdd1"/>
    <path id="Path_15425" data-name="Path 15425" d="M61.668,332.688a3.445,3.445,0,0,1-3.447,3.447H.94A3.411,3.411,0,0,1,0,336c0-.019,0-.039,0-.058A3.445,3.445,0,0,1,3.447,332.5H60.728a3.411,3.411,0,0,1,.939.13C61.668,332.649,61.668,332.669,61.668,332.688Z" transform="translate(0 -222.163)" fill="#dddaec"/>
    <g id="Group_2971" data-name="Group 2971" transform="translate(42.042 109.293)">
      <circle id="Ellipse_293" data-name="Ellipse 293" cx="6.852" cy="6.852" r="6.852" transform="translate(0 0)" fill="#2b4d66"/>
      <circle id="Ellipse_294" data-name="Ellipse 294" cx="6.852" cy="6.852" r="6.852" transform="translate(1.153 0)" fill="#365e7d"/>
      <path id="Path_15426" data-name="Path 15426" d="M374.391,349.791a4.162,4.162,0,0,1-4.162,4.162,4.247,4.247,0,0,1-.48-.028,4.162,4.162,0,0,1,0-8.269,4.24,4.24,0,0,1,.48-.028A4.162,4.162,0,0,1,374.391,349.791Z" transform="translate(-362.225 -342.94)" fill="#dddaec"/>
      <path id="Path_15427" data-name="Path 15427" d="M373.432,349.984a3.707,3.707,0,1,1-3.682-4.135A4.163,4.163,0,0,1,373.432,349.984Z" transform="translate(-362.226 -343.132)" fill="#f9f6f6"/>
      <circle id="Ellipse_295" data-name="Ellipse 295" cx="1.537" cy="1.537" r="1.537" transform="translate(6.467 5.315)" fill="#365e7d"/>
    </g>
    <g id="Group_2972" data-name="Group 2972" transform="translate(7.071 109.293)">
      <circle id="Ellipse_296" data-name="Ellipse 296" cx="6.852" cy="6.852" r="6.852" transform="translate(0 0)" fill="#2b4d66"/>
      <circle id="Ellipse_297" data-name="Ellipse 297" cx="6.852" cy="6.852" r="6.852" transform="translate(1.153 0)" fill="#365e7d"/>
      <path id="Path_15428" data-name="Path 15428" d="M95.391,349.791a4.162,4.162,0,0,1-4.162,4.162,4.247,4.247,0,0,1-.48-.028,4.162,4.162,0,0,1,0-8.269,4.24,4.24,0,0,1,.48-.028A4.162,4.162,0,0,1,95.391,349.791Z" transform="translate(-83.225 -342.94)" fill="#dddaec"/>
      <path id="Path_15429" data-name="Path 15429" d="M94.432,349.984a4.163,4.163,0,0,1-3.682,4.135,4.162,4.162,0,0,1,0-8.269A4.163,4.163,0,0,1,94.432,349.984Z" transform="translate(-83.226 -343.132)" fill="#f9f6f6"/>
      <circle id="Ellipse_298" data-name="Ellipse 298" cx="1.537" cy="1.537" r="1.537" transform="translate(6.467 5.315)" fill="#365e7d"/>
    </g>
    <g id="Group_2983" data-name="Group 2983" transform="translate(11.838 83.473)">
      <path id="Path_15430" data-name="Path 15430" d="M117.119,241.242H101.007a.662.662,0,0,0-.659.664v1.769a3.45,3.45,0,0,0,3.438,3.461H114.34a3.45,3.45,0,0,0,3.438-3.461v-1.769A.661.661,0,0,0,117.119,241.242Z" transform="translate(-99.608 -225.817)" fill="#d6731a"/>
      <g id="Group_2973" data-name="Group 2973" transform="translate(0.673 9.599)">
        <path id="Path_15431" data-name="Path 15431" d="M117.175,196.381a1.629,1.629,0,0,1-.473,1.15,1.607,1.607,0,0,1-1.142.476H101.427a1.626,1.626,0,0,1,0-3.252H115.56A1.621,1.621,0,0,1,117.175,196.381Z" transform="translate(-99.812 -194.755)" fill="#6b2108"/>
      </g>
      <g id="Group_2974" data-name="Group 2974" transform="translate(0.673 9.599)">
        <path id="Path_15432" data-name="Path 15432" d="M115.627,195.229a1.629,1.629,0,0,1-.473,1.15,1.607,1.607,0,0,1-1.142.476H99.882a1.624,1.624,0,0,1,1.545-2.1h14.13A1.621,1.621,0,0,1,115.627,195.229Z" transform="translate(-99.812 -194.755)" fill="#8b2800"/>
      </g>
      <g id="Group_2975" data-name="Group 2975" transform="translate(0 0.158)">
        <path id="Path_15433" data-name="Path 15433" d="M112.883,127.1a1.838,1.838,0,0,1-.536,1.3,1.814,1.814,0,0,1-1.293.539H96.271a1.834,1.834,0,0,1-1.828-1.841c0-.11,0-.219.007-.327h12.633a1.814,1.814,0,0,0,1.293-.539,1.838,1.838,0,0,0,.536-1.3,7.827,7.827,0,0,0-2.244-5.5A7.814,7.814,0,0,1,112.883,127.1Z" transform="translate(-94.443 -119.435)" fill="#d6731a"/>
      </g>
      <g id="Group_2976" data-name="Group 2976" transform="translate(0.007 0)">
        <path id="Path_15434" data-name="Path 15434" d="M108.964,123.833a1.838,1.838,0,0,1-.536,1.3,1.814,1.814,0,0,1-1.293.539H94.5a7.82,7.82,0,0,1,2.269-5.206,7.722,7.722,0,0,1,5.5-2.292h2.894a7.723,7.723,0,0,1,1.559.158A7.828,7.828,0,0,1,108.964,123.833Z" transform="translate(-94.502 -118.176)" fill="#f78f1e"/>
      </g>
      <g id="Group_2977" data-name="Group 2977" transform="translate(0.007 0)">
        <path id="Path_15435" data-name="Path 15435" d="M108.964,123.833a1.838,1.838,0,0,1-.536,1.3,1.814,1.814,0,0,1-1.293.539H94.5a7.82,7.82,0,0,1,2.269-5.206,7.722,7.722,0,0,1,5.5-2.292h2.894a7.723,7.723,0,0,1,1.559.158A7.828,7.828,0,0,1,108.964,123.833Z" transform="translate(-94.502 -118.176)" fill="#f78f1e"/>
      </g>
      <g id="Group_2978" data-name="Group 2978" transform="translate(1.214 15.551)">
        <path id="Path_15436" data-name="Path 15436" d="M113.006,243.07a2.183,2.183,0,0,1-1.894,2.152c-.279.034-.563-.07-.832-.035s-.354.354-.495.555a2.164,2.164,0,0,1-1.361.882,1.525,1.525,0,0,1-.809-.013c-.239-.1-.278-.395-.44-.57s-.451-.116-.676-.137a2.605,2.605,0,0,1-.936-.271,2.676,2.676,0,0,1-1.341-3.089c.107-.379.606-.287.9-.287h7.238c.5,0,.644.29.644.813Z" transform="translate(-104.125 -242.247)" fill="#8ac44b"/>
      </g>
      <g id="Group_2979" data-name="Group 2979" transform="translate(1.212 15.561)">
        <path id="Path_15437" data-name="Path 15437" d="M114.072,243.272a2.167,2.167,0,0,0-.522-.949h-8.967a.946.946,0,0,0-.289.045,2.669,2.669,0,0,0-.182.9h7.9a.712.712,0,0,1,.581,1.12,2.146,2.146,0,0,1-2.334.834.207.207,0,0,0-.245.13,2.153,2.153,0,0,1-2,1.372,2.119,2.119,0,0,1-.466-.052,2.147,2.147,0,0,0,3.678-.833,2.306,2.306,0,0,0,2.141-.309,1.254,1.254,0,0,0,.37-.384A2.4,2.4,0,0,0,114.072,243.272Z" transform="translate(-104.113 -242.323)" fill="#77a838"/>
      </g>
      <g id="Group_2980" data-name="Group 2980" transform="translate(1.133 13.878)">
        <path id="Path_15438" data-name="Path 15438" d="M119.036,230.672l-15.06.121a.486.486,0,0,1-.49-.482l-.006-.8a.486.486,0,0,1,.482-.49l15.06-.121a.486.486,0,0,1,.49.482l.006.8A.486.486,0,0,1,119.036,230.672Z" transform="translate(-103.479 -228.899)" fill="#d62d30"/>
      </g>
      <g id="Group_2981" data-name="Group 2981" transform="translate(9.643 12.783)">
        <path id="Path_15439" data-name="Path 15439" d="M179.1,220.884a.691.691,0,0,1-.695.632H177.19a3.792,3.792,0,0,0-2.726,1.159l-1.518,1.57a.827.827,0,0,1-1.19,0l-.379-.392a.821.821,0,0,0,.357-.218l1.518-1.57a3.792,3.792,0,0,1,2.726-1.159h1.211a.691.691,0,0,0,.695-.632.641.641,0,0,0,0-.113h.542A.676.676,0,0,1,179.1,220.884Z" transform="translate(-171.377 -220.161)" fill="#fec30d"/>
      </g>
      <g id="Group_2982" data-name="Group 2982" transform="translate(1.547 12.783)">
        <path id="Path_15440" data-name="Path 15440" d="M121.392,220.274a.691.691,0,0,1-.695.632h-1.211a3.792,3.792,0,0,0-2.726,1.159l-1.518,1.57a.821.821,0,0,1-.357.218l-1.139-1.178a3.8,3.8,0,0,0-2.726-1.159h-3.557a.675.675,0,0,1-.67-.61.629.629,0,0,1,0-.113.691.691,0,0,1,.695-.632h13.9A.629.629,0,0,1,121.392,220.274Z" transform="translate(-106.789 -220.161)" fill="#fbd836"/>
      </g>
    </g>
    <path id="Path_15441" data-name="Path 15441" d="M371.668,175.725a1.806,1.806,0,0,1-1.807,1.807H357.807A1.808,1.808,0,0,1,356,175.725v-8.418a1.806,1.806,0,0,1,1.807-1.807h3.635a10.2,10.2,0,0,1,5,1.3,10.247,10.247,0,0,1,4.52,5.172h0A10.2,10.2,0,0,1,371.668,175.725Z" transform="translate(-311.378 -76.095)" fill="#83d3f6"/>
    <path id="Path_15442" data-name="Path 15442" d="M354.011,280.505H351a1,1,0,0,1,0-2.005h3.008a1,1,0,0,1,0,2.005Z" transform="translate(-306.13 -174.932)" fill="#365e7d"/>
    <g id="Group_2988" data-name="Group 2988" transform="translate(4.49 88.142)">
      <g id="Group_2985" data-name="Group 2985" transform="translate(0 0)">
        <g id="Group_2984" data-name="Group 2984">
          <path id="Path_15443" data-name="Path 15443" d="M35.821,166.625v-10.25a.947.947,0,1,1,1.894,0v10.25a.947.947,0,0,1-1.894,0Z" transform="translate(-35.821 -155.428)" fill="#fff"/>
        </g>
      </g>
      <g id="Group_2987" data-name="Group 2987" transform="translate(0 13.552)">
        <g id="Group_2986" data-name="Group 2986">
          <circle id="Ellipse_299" data-name="Ellipse 299" cx="0.947" cy="0.947" r="0.947" fill="#fff"/>
        </g>
      </g>
    </g>
    <g id="Group_2989" data-name="Group 2989" transform="translate(44.622 89.55)">
      <path id="Path_15444" data-name="Path 15444" d="M366.438,167.818l-10.046,10.046A1.8,1.8,0,0,1,356,176.74v-2.915l7.165-7.165A10.1,10.1,0,0,1,366.438,167.818Z" transform="translate(-356 -166.66)" fill="#b6ecff"/>
      <path id="Path_15445" data-name="Path 15445" d="M417.315,204.469h0l-5.558,5.556H409l7.376-7.376A10.265,10.265,0,0,1,417.315,204.469Z" transform="translate(-402.357 -198.139)" fill="#b6ecff"/>
    </g>
  </g>
</svg>
